<?xml version="1.0" encoding="UTF-8"?>
<!-- Created with Inkscape (http://www.inkscape.org/) -->
<svg width="622.67" height="950.67" version="1.1" viewBox="0 0 164.75 251.53" xml:space="preserve" xmlns="http://www.w3.org/2000/svg" xmlns:xlink="http://www.w3.org/1999/xlink"><defs><linearGradient id="linearGradient11053" x1="370.62" x2="370.62" y1="-16.471" y2="235.1" gradientTransform="translate(.48884)" gradientUnits="userSpaceOnUse"><stop stop-color="#251c25" offset="0"/><stop stop-color="#2b232b" offset=".13707"/><stop stop-color="#362a34" offset=".23081"/><stop stop-color="#44323c" offset=".5023"/><stop stop-color="#4e3944" offset=".76406"/><stop stop-color="#684b52" offset="1"/></linearGradient></defs><g transform="translate(-123.5 16.471)"><g transform="translate(-164.75)"><rect x="288.25" y="-16.471" width="164.75" height="251.57" fill="#e8dee2" stop-color="#000000" style="font-variation-settings:'wght' 200;paint-order:stroke markers fill"/><path d="m288.25 110.08v-126.55h164.75v251.57l-149.1 6e-5 -15.647-1e-5v-7.4129zm11.249 124.27c-4.7e-4 -1.2811-0.94199 1.7002 0 0zm52.623-0.23518c-0.87977 0.29133 0.87075 0.81584 0 0zm70.32 0.41157c-0.4052-0.74526-0.4052 0.74526 0 0zm-112.54-0.35277c-0.40518-0.74525-0.40521 0.74524 0 0zm99.836 0c-0.40518-0.74525-0.40521 0.74524 0 0zm-82.726-0.52917c-4.4e-4 -1.2811-0.942 1.7002 0 0zm31.926-0.39392c-1.4131-1.4892-0.96765 2.4983 0 0zm-64.911 0.21753c-0.4052-0.74526-0.4052 0.74526 0 0zm3.4102-0.0588c-0.81584-0.87075-0.29133 0.87977 0 0zm51.976-0.29398c-0.4052-0.74526-0.4052 0.74526 0 0zm76.2 0c-0.4052-0.74526-0.4052 0.74526 0 0zm-54.328-0.35278c-0.40521-0.74524-0.40518 0.74525 0 0zm-61.148-0.41157c-0.81584-0.87075-0.29133 0.87977 0 0zm21.637 0.0588c-0.4052-0.74526-0.4052 0.74526 0 0zm48.673-0.16261c1.1601-2.2378-2.822 1.8432 0 0zm-86.42-0.19017c-0.4052-0.74526-0.4052 0.74526 0 0zm71.614 0c-0.40519-0.74527-0.40519 0.74527 0 0zm27.046-0.41158c-0.87975 0.29137 0.87076 0.81583 0 0zm-63.382 0.0588c-0.40519-0.74527-0.40519 0.74527 0 0zm31.574-0.17639c-0.50496-1.3777-0.71411 1.4654 0 0zm-17.462-0.35278c-0.50499-1.3776-0.71409 1.4654 0 0zm107.42-0.35277c-0.93299-1.788-2.0065 2.4427 0 0zm-114.12-0.7727c-1.505-1.0994-0.41972 2.3295 0 0zm2.4694 0.24353c-0.4052-0.74526-0.4052 0.74526 0 0zm-41.099-0.52917c-0.6416-1.5084-0.96324 1.7037 0 0zm29.281 0c-0.0249-1.3398-0.90065 1.6534 0 0zm-7.5847-0.17639c-0.40521-0.74524-0.40517 0.74526 0 0zm17.992 0c-0.40521-0.74524-0.40518 0.74525 0 0zm79.199-0.17638c-0.74814-1.6445-1.6125 2.3438 0 0zm-27.34-0.17639c-0.40518-0.74525-0.40518 0.74525 0 0zm-86.783-0.35278c-0.4052-0.74526-0.4052 0.74526 0 0zm106.54 0c-0.4052-0.74526-0.4052 0.74526 0 0zm-105.33-1.1082c-0.32492-1.4777-1.3156 2.777 0 0zm80.816 0.22628c-0.50498-1.3776-0.7141 1.4654 0 0zm-72.849-0.17638c-0.40516-0.74523-0.4052 0.74522 0 0zm37.328-0.50712c-0.89859-1.5453-1.0198 2.8147 0 0zm-48.735 0.0955c-0.81584-0.87075-0.29133 0.87977 0 0zm47.027-0.45659c1.1601-2.2378-2.8221 1.8434 0 0zm-35.268-0.54295c-0.40521-0.74524-0.40518 0.74525 0 0zm68.439 0c-0.40521-0.74524-0.40518 0.74525 0 0zm-83.065-0.55259c0.047-2.1091-1.5595 2.1823 0 0zm64.236-0.93064c-2.0027-0.69299-0.78752 2.2795 0 0zm10.009 0.42494c-0.40519-0.74527-0.40519 0.74527 0 0zm0.70556 0c-0.4052-0.74526-0.4052 0.74526 0 0zm43.039 0c-0.4052-0.74526-0.4052 0.74526 0 0zm-88.547-1.2668c-1.3207 0.8571-1.421 0.92219 0 0zm91.017 0.91406c-0.4052-0.74526-0.4052 0.74526 0 0zm-77.964-0.35277c-0.40517-0.74526-0.40521 0.74524 0 0zm45.332-0.88195c-0.64158-1.5085-0.96328 1.7037 0 0zm34.572 0c-0.50498-1.3777-0.71412 1.4654 0 0zm-51.506-0.35278c-0.6416-1.5085-0.96326 1.7037 0 0zm45.567 0.1176c-0.81583-0.87076-0.29137 0.87975 0 0zm-61.971-0.47037c-0.9561-1.4133-0.92328 1.731 0 0zm-54.445-0.58797c-0.87978 0.29133 0.87075 0.81584 0 0zm0.82315 0.0588c-0.4052-0.74526-0.4052 0.74526 0 0zm51.153 0c-0.40519-0.74527-0.40519 0.74527 0 0zm-12.347-1.5875c-0.50497-1.3777-0.7141 1.4654 0 0zm-32.279-0.35278c-0.50498-1.3777-0.71412 1.4654 0 0zm13.229-1.2779c-0.9733-1.4572-1.0208 2.6437 0 0zm-26.811-0.30959c-0.4052-0.74526-0.4052 0.74526 0 0zm-0.17639-0.88194c-0.64156-1.5085-0.96328 1.7037 0 0zm80.492 0.11759c-0.81583-0.87075-0.29135 0.87973 0 0zm-21.519-0.70556c-0.87978 0.29135 0.87077 0.81585 0 0zm-27.752-0.512c-1.4136-0.74476-0.11137 1.8186 0 0zm127.7 0.40819c0.9419-1.9907-2.7103 2.1031 0 0zm-149.92-0.54295c-0.40521-0.74524-0.40518 0.74525 0 0zm19.403-0.35277c-0.40519-0.74527-0.40519 0.74527 0 0zm10.231-0.57081c-1.4136-0.74474-0.11134 1.8185 0 0zm75.847-0.0339c-2.0391-1.5388-0.93525 2.1797 0 0zm-109.83-0.15965c-0.87975 0.29137 0.87076 0.81583 0 0zm68.556 0.0588c-0.4052-0.74526-0.4052 0.74526 0 0zm18.264-0.46326c-1.3073-1.1127-0.5593 2.3022 0 0zm19.322 0.2634c0.0991-2.1602-2.3432 2.4316 0 0zm-30.706-0.32931c-4.7e-4 -1.2811-0.94199 1.7002 0 0zm-53.879-1.3452c-1.3073-1.1127-0.55934 2.3022 0 0zm15.956-0.59507c-0.4052-0.74526-0.4052 0.74526 0 0zm28.751-0.88195c-0.69678-1.3697-1.0459 1.6948 0 0zm-35.219-0.23518c-0.81583-0.87076-0.29137 0.87975 0 0zm14.405-0.1176c-0.69679-1.3697-1.0459 1.6948 0 0zm27.34-0.3417c-1.3469-0.97415-1.0062 1.474 0 0zm20.814-0.36385c-0.9561-1.4133-0.92327 1.731 0 0zm44.685 0.11759c-0.81584-0.87075-0.29133 0.87978 0 0zm-87.9-1.5287c-0.50498-1.3777-0.71412 1.4654 0 0zm5.1153-0.7727c-1.5051-1.0994-0.41968 2.3296 0 0zm33.749 0.18473c-0.81584-0.87075-0.29133 0.87978 0 0zm-91.075-0.82314c-0.69678-1.3697-1.0459 1.6948 0 0zm65.44 0.17639c-0.4052-0.74526-0.4052 0.74526 0 0zm61.912-0.17639c-0.64158-1.5085-0.96326 1.7037 0 0zm-7.5847-0.52917c-0.4052-0.74526-0.4052 0.74526 0 0zm-49.117-1.5216c-1.3073-1.1127-0.55931 2.3022 0 0zm-70.651-1.1242c-0.64158-1.5085-0.96328 1.7037 0 0zm98.954-0.35278c-0.50498-1.3777-0.71412 1.4654 0 0zm-37.042-0.17639c-0.40519-0.74527-0.40519 0.74527 0 0zm43.274-0.76435c-0.87977 0.29133 0.87075 0.81584 0 0zm-27.399-0.53751c-1.5051-1.0994-0.4197 2.3295 0 0zm-38.186-0.19744c-1.5212-1.3105-2.0602 2.81 0 0zm11.904 0.26458c-0.64158-1.5085-0.96328 1.7037 0 0zm-0.17639-1.0583c-0.95612-1.4132-0.92328 1.731 0 0zm-40.922-0.7472c-1.4136-0.74474-0.11134 1.8185 0 0zm53.799-0.31114c-0.64158-1.5085-0.96328 1.7037 0 0zm55.033 0c-0.64158-1.5085-0.96326 1.7037 0 0zm-71.582-2.0259c-1.6599-0.27585-0.0602 1.824 0 0zm-36.544 0.0856c-0.40521-0.74524-0.40518 0.74525 0 0zm11.818-0.52916c-0.64159-1.5085-0.96326 1.7037 0 0zm91.193 0c-0.95611-1.4133-0.92328 1.731 0 0zm27.693-0.70556c-0.64158-1.5085-0.96328 1.7037 0 0zm-114.83-2.5366c-1.505-1.0994-0.41973 2.3295 0 0zm8.8194 0.41992c-0.81038-1.4905-0.81041 1.4905 0 0zm86.783-0.36253c-1.562-0.92887-0.34994 1.8885 0 0zm26.458 0.18614c-0.40519-0.74527-0.40519 0.74527 0 0zm-135.29-0.88195c-0.64158-1.5085-0.96328 1.7037 0 0zm53.975-1.0583c-0.50498-1.3777-0.71412 1.4654 0 0zm-37.218-0.52917c-0.40518-0.74525-0.40518 0.74525 0 0zm52.829-0.3511c-1.6365-1.282-2.2836 1.6796 0 0zm-57.768-0.17806c-0.50494-1.3777-0.71413 1.4654 0 0zm-7.94-0.70152c-0.92032-0.79908-0.77268 1.7713 0 0zm70.558-4e-3c-4.4e-4 -1.2811-0.942 1.7002 0 0zm-82.183-1.0818c0.0471-2.1091-1.5596 2.1822 0 0zm61.192 0.19986c-0.40518-0.74525-0.40521 0.74524 0 0zm-67.145-0.76436c-0.81584-0.87075-0.29133 0.87977 0 0zm73.495-0.90408c-1.3763-0.43982-0.48448 1.7866 0 0zm1.0583 0.6101c-0.40519-0.74527-0.40519 0.74527 0 0zm55.739-0.39052c-1.347-0.97412-1.0061 1.474 0 0zm-81.659-1.1288c-1.4586 0.15703-0.44073 1.0435 0 0zm76.367 0.46104c-0.4052-0.74526-0.4052 0.74526 0 0zm-126.73-0.81604c-1.3073-1.1127-0.5593 2.3022 0 0zm44.178 0.48408c-0.49813-1.4491-1.0843 0.88234 0 0zm26.378-0.48408c-1.3074-1.1127-0.55932 2.3022 0 0zm-34.139-0.59507c-0.4052-0.74526-0.4052 0.74526 0 0zm28.575-0.35278c-0.4052-0.74526-0.4052 0.74526 0 0zm-63.147-0.35278c-0.40519-0.74527-0.40519 0.74527 0 0zm-2.6458-2.293c-0.64156-1.5084-0.96327 1.7037 0 0zm117.83-0.70556c-0.64158-1.5085-0.96328 1.7037 0 0zm-74.436-0.70555c-0.50496-1.3776-0.71413 1.4654 0 0zm4.2333-0.35278c-0.64158-1.5085-0.96328 1.7037 0 0zm14.64 0c-0.50498-1.3777-0.71412 1.4654 0 0zm-13.053-1.2347c-0.40518-0.74525-0.40521 0.74524 0 0zm110.07-0.55584c-1.5933-0.9086-0.77037 1.9581 0 0zm-117.3-0.32611c-0.50498-1.3777-0.71412 1.4654 0 0zm1.9403-0.52917c-0.4052-0.74522-0.40516 0.74523 0 0zm87.136-0.35277c-0.40518-0.74525-0.40518 0.74525 0 0zm-116.95-1.5875c-0.64156-1.5085-0.96328 1.7037 0 0zm34.386 0.0138c0.77565-2.1831-2.5291 2.106 0 0zm-30.12-3.098c-1.7241-0.30234-0.13484 2.3572 0 0zm91.867 0.27304c-1.347-0.97412-1.0061 1.474 0 0zm-58.642-0.65071c-1.3073-1.1127-0.55935 2.3022 0 0zm18.415-0.0521c0.77568-2.1831-2.5291 2.106 0 0zm-14.983-2.836c-0.64156-1.5085-0.96328 1.7037 0 0zm-55.033-0.70556c-0.50498-1.3777-0.71412 1.4654 0 0zm-1.0583-0.35278c-4.7e-4 -1.2811-0.94199 1.7002 0 0zm31.926-1.4111c-0.95611-1.4133-0.92328 1.731 0 0zm36.865 0c-4.2e-4 -1.2811-0.94198 1.7001 0 0zm-23.283-0.35278c-0.505-1.3776-0.7141 1.4654 0 0zm-44.626-0.35277c-0.50496-1.3776-0.71411 1.4654 0 0zm28.222 0c-0.50494-1.3777-0.71413 1.4654 0 0zm7.232-5.2917c-4.4e-4 -1.2811-0.942 1.7002 0 0zm73.789 0.11759c-0.81584-0.87075-0.29133 0.87978 0 0zm-96.896-1.7051c-0.40519-0.74527-0.40519 0.74527 0 0zm34.572-1.6739c-1.8084-0.26319-0.10159 2.0822 0 0zm26.988 0.43917c-0.64158-1.5085-0.96328 1.7037 0 0zm14.993 0.17639c-0.4052-0.74526-0.4052 0.74526 0 0zm22.578-1.6291c-1.4136-0.74474-0.11136 1.8185 0 0zm29.583-0.27244c0.66946-1.7295-2.4205 1.7905 0 0zm-94.141-2.6845c-0.4052-0.74526-0.4052 0.74526 0 0zm51.495-0.16261c1.1601-2.2378-2.822 1.8432 0 0zm-86.538-0.95452c-0.81583-0.87075-0.29135 0.87973 0 0zm-9.4074-0.89029c-1.505-1.0994-0.41973 2.3295 0 0zm13.406-0.32728c-1.4136-0.74473-0.11132 1.8185 0 0zm31.28-0.54632c-0.81583-0.87075-0.29135 0.87973 0 0zm-4.1157-2.4106c-0.4052-0.74526-0.4052 0.74526 0 0zm-16.933-1.3158c-1.3763-0.43982-0.48448 1.7866 0 0zm114.3 0.0809c0.92077-1.6252-3.1408 2.2146 0 0zm-116.42-0.17639c-0.4052-0.74526-0.4052 0.74526 0 0zm42.333-4.057c-0.50498-1.3776-0.7141 1.4654 0 0zm67.381-3.3514c-0.40518-0.74525-0.40521 0.74524 0 0zm-118.3-0.76436c-0.81584-0.87075-0.29133 0.87977 0 0zm44.038-0.11759c-0.64158-1.5085-0.96328 1.7037 0 0zm36.395-0.94074c-0.81585-0.87077-0.29135 0.87978 0 0zm23.391-1.8677c0.9419-1.9907-2.7103 2.1031 0 0zm-4.2231-1.492c-1.505-1.0994-0.41973 2.3295 0 0zm-76.553-0.35278c-1.5051-1.0994-0.41972 2.3296 0 0zm70.556-0.31046c-1.9142-0.70613-0.7206 2.4898 0 0zm-18.697-0.68073c-0.50496-1.3776-0.71411 1.4654 0 0zm-69.144-0.17639c-0.4052-0.74526-0.4052 0.74526 0 0zm30.868-0.88195c-0.64159-1.5084-0.96324 1.7037 0 0zm-53.446-0.35277c-0.50496-1.3776-0.71413 1.4654 0 0zm147.81 0.17638c-0.40521-0.74524-0.40518 0.74525 0 0zm5.8208-0.88194c-0.74815-1.6445-1.6125 2.3438 0 0zm-49.565-1.2347c-0.40519-0.74527-0.40519 0.74527 0 0zm-88.018-1.2347c-4.1e-4 -1.2811-0.94202 1.7001 0 0zm87.842-0.35278c-0.64159-1.5085-0.96326 1.7037 0 0zm-39.698-1.3973c0.94185-1.9907-2.7103 2.1032 0 0zm-28.565-0.54295c-0.4052-0.74526-0.4052 0.74526 0 0zm57.856-0.35278c-0.4052-0.74526-0.4052 0.74526 0 0zm34.572-2.8222c-0.4052-0.74526-0.4052 0.74526 0 0zm-111.65-4.7625c-4.4e-4 -1.2811-0.942 1.7002 0 0zm10.407-1.1255c-1.505-1.0994-0.41971 2.3295 0 0zm1.4111 0.41991c-0.505-1.3776-0.71408 1.4654 0 0zm-16.757-1.0583c-0.64158-1.5085-0.96328 1.7037 0 0zm35.807-0.17639c0.56414-2.3137-2.4582 2.6331 0 0zm-44.626-2.6458c-0.50496-1.3777-0.71411 1.4654 0 0zm1.4111-4.2333c-0.64157-1.5085-0.96329 1.7037 0 0zm50.624 0.17638c-0.40521-0.74524-0.40518 0.74525 0 0zm52.035-2.293c-0.50498-1.3777-0.71412 1.4654 0 0zm45.332 0.17639c-0.4052-0.74526-0.4052 0.74526 0 0zm-130.7-1.2347c-4.1e-4 -1.2811-0.94202 1.7001 0 0zm38.806-0.70556c-0.0249-1.3398-0.90068 1.6534 0 0zm-51.153-0.70555c-0.64155-1.5085-0.96328 1.7037 0 0zm65.967-0.34874c-0.92032-0.79908-0.77268 1.7713 0 0zm67.733-6.7028c-0.92032-0.79908-0.77267 1.7713 0 0zm-121-1.4151c-0.64156-1.5085-0.96328 1.7037 0 0zm71.79-1.9403c-0.4052-0.74526-0.4052 0.74525 0 0zm0.70556-0.35278c-0.4052-0.74526-0.4052 0.74526 0 0zm-7.4083-1.0583c0.23797-2.2843-2.0187 2.7519 0 0zm21.872-2.4694c-0.4052-0.74526-0.4052 0.74526 0 0zm-77.611-1.9819c-1.4136-0.74474-0.11134 1.8185 0 0zm21.167-3.16c-1.5933-0.90858-0.77035 1.9581 0 0zm-18.697-2.2664c-0.4052-0.74526-0.4052 0.74526 0 0zm56.983-2.2249c-1.4586 0.15705-0.44072 1.0435 0 0zm-70.198-0.0916c0.047-2.1091-1.5595 2.1823 0 0zm111.84-1.2c1.1814-2.1214-3.4843 2.6561 0 0zm-113.44-4.5973c0.33207-2.0969-2.162 2.7609 0 0zm75.131 0.19017c0.77568-2.1831-2.5291 2.106 0 0zm-41.618-4.0707c-0.4052-0.74526-0.4052 0.74526 0 0zm-7.2319-1.2347c-4.4e-4 -1.2811-0.942 1.7002 0 0zm34.593-0.87073c1.1814-2.1214-3.4843 2.6561 0 0zm-71.635-0.54038c-4.4e-4 -1.2811-0.942 1.7002 0 0zm70.722-1.3973c0.77565-2.1831-2.5291 2.106 0 0zm-77.954-2.1976c-1.505-1.0994-0.41972 2.3295 0 0zm54.866-0.57028c-1.4586 0.15705-0.44072 1.0435 0 0zm-16.237-2.8904c-0.64158-1.5085-0.96326 1.7037 0 0zm5.659-3.5512c0.0471-2.1091-1.5596 2.1823 0 0zm61.722-8.0904c-4.4e-4 -1.2811-0.942 1.7002 0 0zm-79.551-7.2319c-0.4052-0.74526-0.4052 0.74526 0 0zm103.71-2.2793c0.94185-1.9907-2.7103 2.1032 0 0zm-85.362-8.5071c-1.5933-0.90859-0.77034 1.9581 0 0zm29.842-3.7631c-1.7241-0.30232-0.13481 2.3573 0 0zm82.892 0.44959c1.1814-2.1214-3.4843 2.6561 0 0zm-86.98-11.3c-0.4052-0.74526-0.4052 0.74526 0 0zm0.70556-0.35278c-0.4052-0.74526-0.40519 0.74526 0 0zm-46.39-7.2319c-4.4e-4 -1.2811-0.942 1.7002 0 0zm-23.1-1.2428c0.36044-1.7011-1.9288 2.6005 0 0zm89.355-1.7332c1.1776-2.8195-3.7455 2.8364 0 0zm-56.907-10.511c-1.3763-0.43973-0.48449 1.7865 0 0zm-30.868-5.2107c-4.4e-4 -1.2811-0.942 1.7002 0 0zm106.01-3.1874c-1.724-0.2782-1.0156 2.5052 0 0zm4.5928 0.18072c0.36048-1.7011-1.9288 2.6004 0 0zm-81.453-2.1968c0.66605-1.5486-2.1134 2.5908 0 0z" fill="url(#linearGradient11053)"/></g></g></svg>
