<?xml version="1.0" encoding="UTF-8"?>
<!-- Created with Inkscape (http://www.inkscape.org/) -->
<svg id="burst" width="180" height="180" version="1.1" viewBox="0 0 47.625 47.625" xmlns="http://www.w3.org/2000/svg">
 <g transform="translate(-20.674 -235.69)">
  <g>
   <path d="m54.306 272.11c-1.9278-0.38077-4.5777-2.8347-4.1355 0.78997-0.25335 4.9448-8.6366 4.5348-8.3437-0.23369-1.8254-1.7076-5.4963 4.7913-7.8204 3.9266-4.2505 0.71322-2.0343-6.0165-0.51744-8.808-4.0972 2.1218-11.075 1.765-6.8426-5.287 0.51547-1.5169 5.3062-2.799 2.2198-3.7074-2.4105-1.6192-8.5407-8.0105-8.1772-9.3479 2.6771-0.22598 11.484 3.3784 12.58 1.001-1.0091-2.3453-0.50282-5.9566 3.1656-5.4776 2.6757-1.3775 4.9478 4.1136 6.2543-0.14183 1.8266-3.5635 5.7146-13.074 5.5561-7.3294-0.17822 6.4577 0.56282 6.601 2.4051 10.901 3.8716-3.369 12.936-2.3574 7.5316 4.1845-0.37142 1.275-3.4175 2.7558-0.56028 3.3437 2.828-0.77102 9.3958 3.715 7.5923 5.7082-1.3106 2.1772-6.2454 1.2068-8.1239 2.3048-0.07479 4.6694 18.581 16.231 7.9135 12.501-2.4646-0.6298-8.233-3.6978-10.698-4.3276z" fill="#434358" stop-color="#000000" style="paint-order:markers fill stroke"/>
   <path d="m37.582 274.69c-0.44301-3.6752-1.4314-3.7369-4.8771-2.4989-3.861-0.22756-5.4959-5.7305-2.0128-7.488 0.0013-2.94-5.2901 0.35599-5.6189-2.8951-3.5561-2.5931 1.3123-5.4531 4.0829-5.9045 2.7946-1.0863-1.2791-4.0906 0.11653-6.1009-0.53912-3.4283 4.6504-2.6152 6.7076-1.4146 2.9957-0.3979-1.1346-6.3982 3.0875-5.2422 3.0151-0.82752 6.0692 0.9523 6.6562 3.8188 2.819-0.0472 6.0175-7.5055 7.3649-4.9736 0.56195 3.1176 2.1059 6.4446 0.74763 9.5003 4.2907-1.1836 7.2951 2.4832 10.435 4.5518-2.1275 1.4553-6.1882 1.396-6.8882 4.1287 4.0741 1.0867 4.6807 7.2112 0.02545 7.7163-2.4859-0.23924-4.0304 0.81563-3.1443 3.2386 0.15805 4.14-5.3875 4.5832-7.8173 1.9412-3.6092 0.91597-3.0194 6.2164-4.8243 8.9255-1.388 4.8563-2.6106-5.0692-3.9231-6.9616z" fill="#2f2f44ff" stop-color="#000000" style="paint-order:markers fill stroke"/>
   <path d="m28.111 259.07c2.8719-1.0783 6.3263-1.9818 5.4678-5.4798-0.62803-2.5587-2.8262-4.0196 1.2989-2.3425 3.2963 1.3401 6.1268-2.243 5.6931-5.1345 3.3233 2.0116 4.845 6.7219 10.071 1.2356-1.1489 10.036 1.9897 3.5531 6.6434 7.3866-3.6568 1.2562-4.7757 6.0596-1.0357 7.9531 3.74 1.8934-2.5033 0.97321-4.5573 2.5126-2.8423 2.1301 0.95332 6.8232-2.3553 4.7831-2.9452-2.6872-7.7938-0.75456-8.4906 2.6279-1.0841-2.1945-1.2971-9.5328-4.2494-6.923-7.9591 6.4305 0.4902-4.8673-6.4881-6.0591-1.4082-0.24049-3.5667 0.0295-1.9974-0.55979z" fill="#232333ff" stop-color="#000000" style="paint-order:markers fill stroke"/>
  </g>
 </g>
</svg>
