<?xml version="1.0" encoding="UTF-8"?>
<!-- Created with Inkscape (http://www.inkscape.org/) -->
<svg width="70.726" height="68.961" version="1.1" viewBox="0 0 12.627 12.16" xmlns="http://www.w3.org/2000/svg">
 <g transform="translate(-79.391 -98.249)">
  <path d="m84.964 110.4c-2.2712 0.17102-4.363-1.5572-5.0126-3.672-0.7018-1.7764-0.65993-3.7486-0.33536-5.6025-0.23358-0.96147 0.04869-2.2338 1.0664-2.6155 1.3045-0.55039 2.8742-0.01746 3.7698 1.0276 2.122 0.06073 3.9507-1.555 6.097-1.2444 0.85429 0.18725 1.1578 1.1749 1.1333 1.9489 0.09054 1.5284 0.51649 3.0521 0.24826 4.5875-0.24091 1.9845-1.2441 4.046-3.1171 4.9458-1.1915 0.57354-2.5461 0.68284-3.8497 0.62458zm1.8582-0.32609c2.305-0.0507 4.2413-2.0484 4.5913-4.264 0.49424-2.0754 0.51679-4.2752-0.02767-6.3433-0.4437-1.0242-1.8671-1.4057-2.7914-0.80749-1.2428 0.49758-2.479 1.386-3.8859 1.1162-1.0415-0.29944-1.8529-1.3403-3.0201-1.1715-0.89642 0.10601-1.4973 0.94224-1.6638 1.7763-0.32906 1.4331-0.13825 2.917-0.11329 4.3706 0.06543 1.2603 0.12416 2.6883 1.0607 3.6459 1.4568 1.5763 3.8041 2.0007 5.8502 1.6772zm-2.788-2.4768c0.74788-0.24884 1.0516-1.1901 1.8681-1.3034 0.8497 0.17323 0.45555 1.6548-0.36319 1.3841-0.50218-0.0122-1.0055-0.2399-1.5049-0.0806zm0.40226-0.49676c-0.62963 0.23506-0.08626-0.3949 0 0zm-1.8238-2.2672c-0.61922-0.34148-0.10705-1.1831 0.45958-1.222 0.72553-0.15805 1.2588 0.88969 0.45082 1.2092-0.28375 0.13802-0.61348 0.0545-0.9104 0.0128zm0.36386-0.23217c0.88874-0.17927 0.36839-1.776-0.45237-1.285-0.70928 0.32676-0.23684 1.3702 0.45237 1.285zm0.38548-0.10237c0.80258-0.54539-1.0064-0.92705-0.41805-0.13154 0.12765 0.0761 0.2796 0.0853 0.41805 0.13154zm4.1525-0.0659c-0.73845-0.52367 0.34017-1.5955 0.9385-0.99673 0.78934 0.46349-0.07084 1.5431-0.75424 1.0098l-0.09188-0.0102zm0.20521-0.36595c0.85466 0.28688 1.1067-1.4102 0.12383-1.1776-0.63022 0.0413-0.97767 1.1774-0.12383 1.1776zm0.57172-0.35563c-0.07432-0.68312-0.47406 0.0882-0.19852 0.29478 0.10496-0.0634 0.14323-0.193 0.19852-0.29478zm-7.2394-1.8327c-0.8254-0.31057-0.84034-1.7343 0.03174-1.9927 0.64352-0.31713 1.7982-0.02797 1.6643 0.85563-0.13122 0.76886-1.0209 1.0677-1.6961 1.137zm1.3016-0.72293c0.6892-0.60961-0.20901-1.7693-1.0057-1.4109-0.78484 0.13707-1.2959 1.3777-0.41637 1.759 0.46344 0.25751 1.2304 0.24994 1.4221-0.34804zm6.6724-0.23082c-0.7304-0.40046-0.35381-1.5612 0.37307-1.7241 0.65402-0.14363 1.658 0.0543 1.7074 0.86746-0.05676 0.8566-1.1266 1.5884-1.9024 1.116-0.07902-0.0707-0.13861-0.16144-0.1781-0.25942zm1.3412 0.34876c0.86099-0.34171 0.44416-1.6894-0.40452-1.7337-0.6095-0.27287-1.715 0.21583-1.3023 0.97287 0.325 0.58286 1.0757 0.81387 1.7068 0.76085z" fill="#dd98ba" />
 </g>
</svg>
