<?xml version="1.0" encoding="UTF-8"?>
<!-- Created with Inkscape (http://www.inkscape.org/) -->
<svg width="568.64" height="479.6" version="1.1" viewBox="0 0 150.45 126.89" xmlns="http://www.w3.org/2000/svg">
 <g transform="translate(-30.379 -39.599)">
  <path transform="matrix(.27604 0 0 .27604 230.5 52.503)" d="m-368.88 183.27c-50.007-27.002-112.69-29.144-164.42-5.6186-51.734 23.525-91.321 72.173-103.84 127.61-2.99 13.238-4.5119 27.014-2.2251 40.392 2.2868 13.378 8.6856 26.387 19.344 34.788 6.6658 5.254 14.755 8.5406 23.087 10.157 8.3322 1.6164 16.917 1.611 25.359 0.73151 16.884-1.7591 33.222-6.9567 49.998-9.5482 21.379-3.3025 43.151-2.3333 64.781-1.9946 21.63 0.33862 43.565-2e-3 64.405-5.8032 13.836-3.8516 26.958-10.052 40.905-13.479 24.495-6.0182 50.252-3.2001 75.114 1.0586 6.2374 1.0685 12.482 2.2312 18.493 4.2108 6.0106 1.9796 11.811 4.8092 16.623 8.9196 2.0179 1.7238 3.8451 3.657 5.7691 5.4851 1.4376 1.3659 2.9352 2.6792 4.2059 4.2016 0.70541 0.84518 1.3376 1.7515 1.887 2.7054 5.1496-7.2001 9.9258-14.667 14.303-22.361 1.962-3.4487 3.8442-6.9436 5.6018-10.501 12.583-25.466 18.616-54.872 12.733-82.662-3.6048-17.028-11.614-33.061-22.793-46.402-11.801-14.083-26.838-24.998-41.069-36.621-15.879-12.97-30.912-26.975-44.971-41.897-3.4655 4.9174-8.6434 8.6028-14.425 10.267-5.7811 1.6641-12.126 1.2954-17.675-1.027-5.5495-2.3224-10.266-6.5828-13.138-11.868-2.8727-5.2857-3.8822-11.561-2.8123-17.48 0.62936-3.4824 1.942-6.797 3.0589-10.155 1.1168-3.358 2.0515-6.8507 1.8814-10.385-0.22476-4.669-2.477-9.2054-6.0605-12.207-3.5835-3.0015-8.4446-4.4232-13.081-3.8255z" fill="#373747" stroke="#000" stroke-width=".9585px"/>
  <g fill="#080505">
   <path class="UnoptimicedTransforms" transform="matrix(.028514 0 0 .028514 -778.09 33.724)" d="m31665 4075.4c3.977-1.6129-23.909-76.394-54.726-205.39v-1e-4c-16.161-67.682-31.107-139.94-47.783-231.55-14.507-79.724-27.194-156.78-42.322-249.52-12.25-75.106-25.95-159.71-40.214-241.26 0.01 0.076-2.742-15.602-2.729-15.525-15.722-89.013-31.755-172.15-49.938-253.1-19.565-87.123-40.159-165.15-63.5-238.25-26.872-84.179-54.609-152.81-83.864-211.8-29.013-58.527-56.256-100.48-77.937-129.34-21.197-28.215-34.993-41.701-36.643-40.41-1.65 1.2913 8.927 17.206 26.725 47.068 18.458 30.969 41.795 72.887 67.739 132.08 26.08 59.536 50.69 127.17 75.269 211.19 21.313 72.878 40.172 149.93 58.659 236.8 17.191 80.799 32.511 162.96 48.183 251.99 0.02 0.1207 2.695 15.357 2.716 15.478 11.793 67.417 29.57 173.42 41.363 240.84 15.822 91.222 30.384 171.25 46.536 249.58 18.713 90.761 36.662 164.95 55.849 231.51 18.878 65.512 36.157 113.66 50.767 148.8 14.132 33.989 23.862 51.63 25.85 50.824z"/>
   <path class="UnoptimicedTransforms" transform="matrix(.027182 -.0086148 .0086148 .027182 -733.26 312.33)" d="m31354 2348.2c2.801-0.8063 24.538 62.813 53.772 171.45 15.075 56.022 31.775 122.74 49.143 199.69v1e-4c28.914 128.12 58.533 278.97 82.698 444.78 0 1e-4 0.192 1.3184 0.192 1.3185 11.572 79.537 20.841 155.6 27.928 228.95 7.696 79.649 12.506 152.76 14.788 221.26 2.643 79.264 1.705 146.18-1.679 204.76-6.509 112.84-21.964 179.05-24.842 178.57s7.145-67.006 9.395-179.17c1.171-58.535 0.305-124.25-3.846-203.26-3.582-68.138-9.338-140.44-17.687-219.75-7.683-72.983-17.219-148.47-28.758-227.76 0 1e-4 -0.191-1.3132-0.191-1.3131-24.102-165.39-52.109-315.42-78.535-443.95v-1e-4c-15.906-77.363-30.606-143.67-43.592-200.39-25.043-109.39-41.587-174.37-38.786-175.18z"/>
   <path class="UnoptimicedTransforms" transform="matrix(.028514 0 0 .028514 -770.31 27.828)" d="m32734 4237.1c1.037 0.6383 8.776-8.9419 20.505-28.957 11.466-19.566 27.526-51.071 40.663-92.54 11.765-37.154 21.275-82.39 24.462-135.5 2.656-44.254 0.929-92.401-6.271-144.74-6.645-48.335-17.65-98.608-33.296-151.41-15.05-50.804-33.935-102.55-56.739-155.89-22.305-52.178-47.857-104.76-76.7-158.32-56.646-105.2-123.16-209.49-199.64-316.04-5.627-7.8394-11.298-15.677-17.014-23.512-72.733-99.717-148.01-192.84-221.81-278.58v-1e-4c-86.988-101.07-172.31-192.29-251.22-272.37-89.166-90.506-169.39-166.07-236.93-226.75-40.408-36.303-75.481-66.54-104.92-91.106-57.852-48.281-91.825-73.06-93.264-71.318-1.439 1.7421 29.744 29.785 84.898 80.836 28.234 26.134 61.633 57.312 100.92 94.92 65.506 62.707 143.49 139.52 231 231.16 77.324 80.979 161.27 172.7 247.11 273.78 72.828 85.76 147.32 178.54 219.48 277.47 5.672 7.7754 11.3 15.55 16.886 23.325 75.966 105.74 142.14 208.54 198.89 312.1 28.883 52.698 54.553 104.25 77.093 155.36 23.042 52.251 42.274 102.74 57.816 152.3 16.15 51.504 27.83 100.34 35.329 147.33 8.116 50.882 11.025 97.549 9.734 140.62-1.548 51.671-9.084 95.822-18.844 132.55-10.843 40.824-24.601 72.838-33.91 93.061-9.565 20.779-15.268 31.593-14.231 32.232z"/>
   <path class="UnoptimicedTransforms" transform="matrix(.028514 0 0 .028514 -777.65 20.598)" d="m32324 3939.4c0.482 0.02 1.281-4.931 1.589-14.434 0.319-9.8035 0-23.263-2.004-41.517-2.07-18.847-5.666-40.388-11.676-66.578-5.275-22.993-11.978-47.685-20.582-75.339-8.063-25.918-17.389-53.117-28.286-82.425v-1e-4c-20.803-55.949-45.414-114.66-75.186-179.52-27.47-59.844-57.792-121.46-91.415-185.78-0-0-1.243-2.3758-1.244-2.3772-34.02-64.995-68.068-126.35-101.35-183.71-35.663-61.459-69.347-116.46-101.29-166.17-35.383-55.061-65.187-98.411-92.497-135.51-15.557-21.132-28.655-37.943-40.283-52.083-21.543-26.199-34.994-39.232-35.676-38.611-0.692 0.6288 11.379 14.822 31.52 41.865 11.018 14.795 23.162 31.626 38.161 53.311 26.377 38.137 54.647 81.135 89.381 136.97 31.191 50.138 64.089 105.13 99.326 166.77 32.843 57.454 66.569 118.71 100.5 183.56-0-0 1.241 2.3724 1.24 2.3709 33.56 64.206 63.922 125.41 91.695 184.92 30.125 64.559 55.113 122.51 76.646 177.98v1e-4c11.265 29.017 20.972 55.83 29.502 81.428 9.107 27.329 16.313 51.557 22.203 74.225 6.719 25.868 10.996 46.815 13.919 65.43 2.843 18.129 3.947 30.961 4.577 40.842 0.599 9.391 0.743 14.37 1.225 14.391z"/>
   <path class="UnoptimicedTransforms" transform="matrix(.028514 0 0 .028514 -773.31 25.158)" d="m31665 4075.4c3.977-1.6129-23.909-76.394-54.726-205.39v-1e-4c-16.161-67.682-31.107-139.94-47.783-231.55-14.507-79.724-27.194-156.78-42.322-249.52-12.25-75.106-25.95-159.71-40.214-241.26 0.01 0.076-2.742-15.602-2.729-15.525-15.722-89.013-31.755-172.15-49.938-253.1-19.565-87.123-40.159-165.15-63.5-238.25-26.872-84.179-54.609-152.81-83.864-211.8-29.013-58.527-56.256-100.48-77.937-129.34-21.197-28.215-34.993-41.701-36.643-40.41-1.65 1.2913 8.927 17.206 26.725 47.068 18.458 30.969 41.795 72.887 67.739 132.08 26.08 59.536 50.69 127.17 75.269 211.19 21.313 72.878 40.172 149.93 58.659 236.8 17.191 80.799 32.511 162.96 48.183 251.99 0.02 0.1207 2.695 15.357 2.716 15.478 11.793 67.417 29.57 173.42 41.363 240.84 15.822 91.222 30.384 171.25 46.536 249.58 18.713 90.761 36.662 164.95 55.849 231.51 18.878 65.512 36.157 113.66 50.767 148.8 14.132 33.989 23.862 51.63 25.85 50.824z"/>
  </g>
  <g>
   <path class="UnoptimicedTransforms" transform="matrix(.27604 0 0 .27604 76.666 79.551)" d="m90.123 268.04c-1.6732-2.2552-18.167-3.5271-61.909-27.382-29.011-15.821-52.666-47.818-67.075-69.13-8.6866-12.849-10.56-48.031-8.5203-52.299 6.7724-14.174-20.959-12.631-13.975-40.429 4.9463-19.687-2.5971-10.962 2.043-62.876 7.5115-56.407 23.353-33.752 52.713-45.894 24.436-10.595 124.8-30.845 156.4-11.322 18.028 11.136 55.589 57.819 46.854 88.914-4.6192 16.443-12.32 32.312-7.1994 40.906 6.7111 11.262-3.5479-3.4722 0.116 13.686 2.8194 13.204 3.3723 18.841 7.814 31.286 10.181 28.525-25.631 66.711-48.618 90.735-17.909 18.932-41.215 31.681-58.648 43.805z" fill="#3b2d24" stroke-width="3.6227"/>
   <path class="UnoptimicedTransforms" transform="matrix(.028514 0 0 .028514 -770.31 27.828)" d="m30576 4408.8c-1.05 3.0629-59.227-12.316-164.76-50.719-103.48-37.652-260.33-101.29-443.09-198.85-119.91-63.927-269.13-151.79-398.31-271.88-57.026-53.07-112.09-114.62-159.73-185.01-44.171-65.254-82.266-139.19-107.72-220.18-13.029-41.619-22.585-84.361-30.048-128.01-7.301-42.648-12.581-85.25-17.582-128.72-4.816-41.769-9.469-85.146-15.307-127.14-5.742-41.22-12.768-82.728-22.725-123.35-15.636-64.224-38.805-127.08-64.147-192.65-24.214-62.437-51.022-128.6-72.306-196.41-31.218-99.359-51.219-206.4-50.417-316.28 0.752-106.02 21.974-215.44 70.216-315.69 52.124-107.2 132.53-199.05 226.58-274.65 91.318-73.543 192.76-131.82 297.64-185.46 117.06-60.063 239.83-115.47 368.1-160.19 89.573-31.238 182.28-57.222 277.28-75.502 37.857-7.2841 75.867-13.304 114-17.952 136.2-16.596 273.26-14.587 405.9 8.1085 135.5 23.146 265.56 68.642 381.24 137.18 77.022 45.717 146.92 101.33 207.76 164.35 62.26 64.472 114.92 136.67 156.12 213.97 42.325 79.442 72.231 163.9 89.619 249.56 17.932 88.264 22.482 177.73 13.787 264.65-7.075 69.664-22.184 137.39-36.457 201.41-14.811 66.989-28.825 130.39-34.838 194.26-4.055 43.03-4.62 85.317 0.391 126.25 5.79 49.054 20.169 98.5 34.542 147.17 15.257 51.065 30.595 101.35 39.288 154.87 14.695 92.427 6.374 184.49-15.562 268.12-23.723 90.619-62.767 173.27-108.82 245.52-49.821 78.167-108.2 146.67-166.09 205.93-64.756 66.311-133.48 126.02-194.88 177.18-171.47 142.91-320.3 248.02-419.72 313.92-101.21 67.082-158.09 99.028-159.93 96.2-1.838-2.8278 51.467-40.232 148.8-112.11 95.097-70.229 240.64-180.4 407.05-325.9 59.68-52.194 126.35-112.62 188.2-178.49 55.297-58.909 110.66-126.13 156.93-201.54 42.655-69.509 78.471-148.19 99.385-233.19 19.211-78.26 25.972-163.36 11.447-246.81-8.272-48.588-23.598-96.268-39.374-147.56-15.178-48.796-30.728-101.07-38.086-156.15-5.962-45.969-5.904-92.459-1.855-138.72 6.009-68.592 19.852-134.65 34.257-201.79 13.659-64.213 27.9-129.78 33.838-194.54 7.527-80.651 2.701-163.84-14.45-245.89-16.664-79.639-44.951-158.13-84.639-231.73-38.621-71.658-88.043-138.73-146.36-198.67-57.005-58.581-122.49-110.3-194.43-152.7-107.95-63.741-230.43-106.06-358.58-127.89-125.63-21.367-256.1-23.055-386.24-7.234-36.505 4.4357-72.963 10.211-109.34 17.218-91.296 17.583-180.85 42.678-267.79 72.844-124.54 43.224-244.55 97.218-359.75 155.93-103.1 52.714-200.8 108.15-286.68 177.18-88.124 70.986-162.9 154.86-209.72 251.28-44.069 89.725-63.811 189.94-65.353 287.94-1.577 101.72 16.753 202.59 45.596 297.45 19.71 64.745 45.597 129.95 69.468 193.2 25.128 66.348 48.502 131.96 64.655 200.51 10.162 43.414 17.119 86.88 22.556 129.32 5.552 43.25 9.79 87.059 14.115 128.61 4.512 43.243 9.171 84.881 15.729 125.96 6.718 42.02 15.209 82.543 26.904 121.47 22.643 75.714 57.628 145.82 98.559 208.37 44.2 67.522 96.029 127.28 150.04 179.35 122.16 117.91 267.36 207.37 384.3 273.66 178.18 100.87 332.47 169.79 432.89 212.48 102.85 43.725 158.97 65.034 157.92 68.097z" fill="#1e1712"/>
   <path class="UnoptimicedTransforms" transform="matrix(.27604 0 0 .27604 76.666 79.551)" d="m41.875 199.59c-16.394 27.4-40.292 92.734-68.653 105.16-24.876 10.898-49.954 11.586-75.033 6.0406-19.025-4.2067-36.831-8.0126-48.688-26.414-19.104-27.446-25.165-120.9-3.1364-145.01 18.613-21.341 36.503-49.333 37.25-79.267 2.8454-38.521-0.72981-79.535 28.73-110.03 37.062-41.006 93.947-39.255 145.23-35.633 30.95-1.1093 68.512 5.3719 97.817-10.014 34.367-17.574 60.506-46.856 100.98-48.604 52.41-6.2342 103.01 42.069 116.4 93.156 14.981 46.902-7.5863 104.4-54.776 122.56-41.046 16.291-83.814 11.122-114.08-18.587-17.697-21.102-33.267-62.401-84.442-41.594-22.597 9.1877-33.081 11.586-63.378 3.039-28.991-8.1789-76.655-8.5049-97.28 18.627-16.576 19.561 2.8515 50.558 19.331 65.242 27.032 26.323 62.625 30.53 68.934 71.64 1.7351 10.34-1.057 20.331-5.1984 29.701z" fill="#424256" stroke-width="3.6227"/>
  </g>
  <g transform="matrix(.27604 0 0 .27604 230.5 52.503)" stroke-width="3.6227">
   <path class="UnoptimicedTransforms" transform="matrix(.1033 0 0 .1033 -3625.6 -89.389)" d="m30681 2229.5c1.118-14.678 51.877-22.392 129.18-35.599 38.085-6.471 119.47-21.655 180.8-27.87 29.937-3.0581 62.281-4.9278 95.967-3.984 5.784 0.1595 11.613 0.4116 17.482 0.7645 27.683 1.6646 54.858 5.4893 81.293 11.714 70.759 16.866 128.44 50.372 170.7 86.744 44.058 37.827 70.65 77.866 84.079 107.56 13.562 29.989 14.212 49.519 7.11 53.649-7.412 4.3095-22.353-6.6245-45.13-25.108-22.885-18.571-53.805-44.315-95.158-68.592-39.527-23.128-88.343-44.568-143.13-54.931-20.9-4.0369-42.835-6.555-65.982-7.9579-4.904-0.2972-9.81-0.5412-14.71-0.7391-28.486-1.1347-57.627-0.4796-85.555 0.5101-74.401 2.7019-124.14 6.7209-184.1 2.9753-84.507-5.3341-133.9-25.278-132.85-39.138z" fill="#0c1931"/>
   <g stroke-width="3.6227">
    <g>
     <path class="UnoptimicedTransforms" transform="matrix(.1033 0 0 .1033 -3625.6 -89.389)" d="m29556 2422.5c7.41 4.3093 22.353-6.6282 45.131-25.113 22.888-18.574 53.805-44.314 95.155-68.589 39.531-23.13 88.351-44.568 143.13-54.929 20.902-4.0369 42.837-6.5546 65.982-7.9574 4.904-0.2972 9.81-0.5412 14.71-0.7391 28.487-1.1346 57.63-0.479 85.555 0.511 74.413 2.7035 124.15 6.7231 184.1 2.9781 84.516-5.334 133.9-25.281 132.85-39.143-1.118-14.679-51.869-22.394-129.18-35.602-38.073-6.4686-119.47-21.653-180.8-27.867-29.935-3.0573-62.279-4.927-95.967-3.983-5.784 0.1595-11.613 0.4116-17.482 0.7645-27.681 1.6645-54.856 5.4892-81.293 11.714-70.752 16.865-128.43 50.369-170.7 86.746-44.052 37.822-70.644 77.858-84.076 107.56-13.564 29.99-14.217 49.523-7.115 53.652z" fill="#0c1931"/>
     <path d="m-505.75 187.47c0 10.856-11.395 17.07-28.96 17.07-8.4256 0-28.197-18.409-27.984-24.987 5.1898-12.838 18.074-12.113 29.536-11.999 17.566 0 27.408 9.0592 27.408 19.915z" fill="#d7dfef" stop-color="#000000" stroke-width="9.585" style="paint-order:markers fill stroke"/>
     <circle cx="-525.91" cy="187.21" r="18.428" fill="#807d5b" stop-color="#000000" style="paint-order:markers fill stroke"/>
     <path class="UnoptimicedTransforms" transform="matrix(.1033 0 0 .1033 -3625.6 -89.389)" d="m29613 2677.7c-7.86-3.0879-10.316-24.61 1.276-59.343 11.388-34.124 37.362-81.774 86.071-124.62 47.52-41.722 114.62-76.469 195.29-85.718 13.72-1.5534 27.652-2.3357 41.722-2.3084 79.604 0.1546 150.5 25.905 204.39 62.825 63.479 43.641 98.558 98.677 114.43 138.86 16.178 40.965 13.822 66.959 5.315 70.302-9.211 3.6188-25.015-14.731-51.097-41.799-25.893-26.872-63.662-63.043-115.84-89.696-44.094-22.639-98.59-38.246-157.41-38.387-10.449-0.025-20.764 0.4444-30.9 1.3908-59.522 5.445-112.56 26.756-153.99 52.744-42.64 26.678-73.486 58.36-95.156 81.227-21.841 23.047-35.738 37.804-44.093 34.521z" fill="#1e1712"/>
     <path class="UnoptimicedTransforms" transform="matrix(.1033 0 0 .1033 -3625.6 -89.389)" d="m29664 2628.8c3.828-1.6799 15.32 17.868 38.522 47.25 23.143 29.306 59.128 68.441 111.76 99.601 35.976 21.326 78.779 38.218 126.46 46.407 23.949 4.1126 47.568 5.7503 70.401 5.2035 22.833-0.5809 44.116-3.2649 63.828-8.5379 21.815-5.8647 40.78-14.416 56.477-25.468 20.502-14.27 35.112-32.607 45.049-49.462 10.896-18.547 16.405-35.701 19.849-47.366 3.494-11.833 5.322-18.752 7.64-18.774 4.637-0.045 13.467 30.56-5.304 76.926-8.427 20.892-23.279 44.77-47.206 64.698-18.237 15.064-40.524 27.172-65.977 35.218-22.856 7.255-47.312 11.356-72.914 12.53-25.531 1.2063-51.971-0.2961-78.721-4.8832-53.306-9.1411-100.62-29.24-139.44-54.862-56.767-37.509-91.763-84.021-110.79-118.81-19.098-34.914-23.47-57.991-19.643-59.671z" fill="#1e1712"/>
     <ellipse cx="-525.91" cy="187.21" rx="8.5352" ry="8.0179" stop-color="#000000" style="paint-order:markers fill stroke"/>
     <path d="m-443.88 187.47c0 10.856 9.8428 17.07 27.408 17.07 8.4256 0 28.973-18.668 28.76-25.246-10.312-15.518-20.003-11.891-28.76-11.74-17.566 0-27.408 9.0592-27.408 19.915z" fill="#d7dfef" stop-color="#000000" stroke-width="9.585" style="paint-order:markers fill stroke"/>
     <circle transform="scale(-1,1)" cx="423.62" cy="187.21" r="18.428" fill="#807d5b" stop-color="#000000" style="paint-order:markers fill stroke"/>
     <path class="UnoptimicedTransforms" transform="matrix(.1033 0 0 .1033 -3625.6 -89.389)" d="m30800 2677.7c-4.636-0.046-13.468 30.556 5.306 76.925 8.426 20.89 23.278 44.769 47.206 64.697 18.236 15.063 40.523 27.171 65.977 35.217 22.854 7.2545 47.31 11.355 72.913 12.53 25.582 1.2088 52.078-0.3014 78.886-4.9105 53.246-9.1545 100.5-29.24 139.27-54.831 56.777-37.515 91.773-84.034 110.8-118.82 19.094-34.913 23.463-57.984 19.634-59.664s-15.319 17.861-38.52 47.24c-23.138 29.3-59.124 68.443-111.77 99.608-35.932 21.301-78.681 38.184-126.31 46.384-24.001 4.1322-47.671 5.7779-70.549 5.2302-22.835-0.5807-44.117-3.2648-63.828-8.5376-21.817-5.865-40.782-14.416-56.478-25.469-20.503-14.271-35.113-32.609-45.049-49.463-10.897-18.548-16.406-35.704-19.849-47.368-3.493-11.833-5.322-18.75-7.64-18.773z" fill="#1e1712"/>
     <ellipse transform="scale(-1,1)" cx="423.62" cy="187.21" rx="8.5352" ry="8.0179" stop-color="#000000" style="paint-order:markers fill stroke"/>
     <path class="UnoptimicedTransforms" transform="matrix(.1033 0 0 .1033 -3625.6 -89.389)" d="m30743 2677.7c9.21 3.6186 25.013-14.729 51.093-41.796 25.891-26.87 63.661-63.045 115.84-89.701 44.108-22.646 98.632-38.258 157.48-38.386 10.424-0.023 20.715 0.4472 30.829 1.3917 59.518 5.446 112.56 26.754 153.99 52.745 42.637 26.676 73.483 58.355 95.154 81.223 21.842 23.047 35.741 37.806 44.096 34.523 7.86-3.0881 10.316-24.612-1.277-59.347-11.389-34.126-37.363-81.774-86.069-124.61-47.524-41.726-114.63-76.471-195.29-85.718-13.689-1.5498-27.589-2.3317-41.627-2.3079-79.646 0.1355-150.58 25.895-204.48 62.827-63.484 43.644-98.563 98.684-114.43 138.86-16.177 40.963-13.821 66.954-5.314 70.296z" fill="#1e1712"/>
     <path class="UnoptimicedTransforms" transform="matrix(.1033 0 0 .1033 -3625.6 -89.389)" d="m30777 3025c60.925 59.619-53.696-52.543 7.229 7.0758 23.055 22.484 46.677 45.8 68.931 71.784 22.829 26.577 43.203 55.889 58.986 88.298 16.229 33.108 26.235 69.398 27.565 106.77 1.335 46.987-12.095 91.345-35.091 127.42-25.586 40.014-61.89 68.253-99.219 84.065-45.729 19.302-90.84 19.77-126.04 11.921-44.377-9.9423-72.656-31.743-86.809-47.182-9.077-9.8993-12.3-16.909-11.725-20.201 0.589-3.3712 5.013-2.9339 12.819-0.1919 12.94 4.5457 48.678 22.008 91.864 23.859 27.885 1.2332 62.277-3.8317 94.453-21.51 25.415-13.901 50.101-36.317 66.407-65.73 12.079-21.678 19.784-47.717 20.606-74.91 0.145-4.785 0.07-9.5649-0.219-14.317-1.306-25.754-9.769-51.982-21.891-76.948-12.603-25.738-29.792-49.941-48.801-72.887-19.431-23.371-41.846-46.345-63.425-68.897-23.388-24.341-45.624-48.032-66.324-74.29-42.838-54.521-70.582-111.2-87.488-161.86-23.532-70.452-25.949-127.51-22.681-157.08 3.661-33.106 11.359-26.397 19.731-2.7483 8.105 22.894 23.273 79.443 52.302 139.86 20.45 42.529 49.491 91.25 90.726 137.94 17.442 19.831 36.404 38.534 58.089 59.754z" fill="#080505"/>
    </g>
    <path class="UnoptimicedTransforms" transform="matrix(1.0286 -.058239 .058239 1.0286 -637.19 -186.23)" d="m121.27 473.8 12.1-3.0545 8.2806 2.4012 3.561 4.1288 2.5443 0.90591c3.405-2.1868 5.8044-5.1962 10.665-6.1919 1.6753-0.34318 3.0577 0.15175 4.188 1.435 1.0056 1.1417 2.4807 2.0821 2.1128 3.8124 0.19083 1.2127-0.48185 2.5694-1.5453 3.9912l0.4868 3.294-1.9982 5.6003c-0.57466 1.6106-5.819 5.1685-7.4914 5.5251l-14.021 2.9889c-1.6725 0.35653-16.567-2.5849-18.11-3.3228-4.8983-2.3427-9.3971-5.8835-13.885-9.4577l-7.7728-8.0815 4.7836 0.16905c0.80338 0.0284 4.5882 0.35642 7.9619-0.60932 3.803-1.0886 7.2342-3.4901 8.1393-3.5342z" fill="#434358" stop-color="#000000" stroke-width=".57776" style="font-variation-settings:'wght' 200;paint-order:stroke markers fill"/>
    <g>
     <path class="UnoptimicedTransforms" transform="matrix(.10583 -.011186 .011186 .10583 -3752.1 244.09)" d="m30280 3728.9c-9.742-17.002 1.899-3.1437 22.076 19.064 21.78 23.972 60.098 64.591 115.46 104.49 20.441 14.72 43.815 29.837 69.441 42.466 9.612 4.7404 19.629 9.1757 30.025 13.229 34.494 13.451 70.271 21.574 105.79 24.196 37.034 2.7742 73.922-0.4692 107.72-5.4084 27.545-4.1283 51.218-9.0946 72.388-19.4 34.477-16.557 56.721-44.121 69.718-66.714 6.37-11.294 9.776-19.866 10.455-28.655 0.624-7.364-0.832-13.626-2.029-17.635-1.776-5.945-3.535-9.4411-0.317-6.2709 2.512 2.4741 8.446 10.079 8.991 24.015 0.306 9.9987-2.445 20.707-8.467 33.047-11.666 24.518-33.528 55.43-71.603 75.528-22.798 11.883-47.987 18.201-76.474 22.87-22.836 3.832-47.696 6.8491-73.442 7.5891-12.753 0.3665-25.502 0.169-38.224-0.702-51.619-3.5889-100.18-18.314-142.43-39.904-26.38-13.489-50.149-29.472-71.033-45.419-37.723-28.787-66.875-58.043-88.132-82.639-20.943-24.234-34.488-44.277-39.911-53.742zm588.17 64.952c-9.852 3.2738-7.269 0.3669-5.351-0.8438 3.041-1.92 13.745-7.6203 21.67-18.887 5.802-8.3005 10.935-20.884 8.304-34.289-1.84-10.279-8.728-21.075-19.637-28.012-9.254-5.9157-21.561-8.756-34.231-7.6746-15.393 1.2177-30.639 8.5479-45.899 19.224-9.585 6.8376-19.32 15.424-31.411 22.88-7.774 4.8864-17.111 9.093-27.783 10.415-5.23 0.6005-10.746 0.3052-16.224-1.1363-5.41-1.4231-10.631-4.1223-15.098-8.118-2.832-2.766-5.106-5.6577-7.021-8.5165-2.9-4.3275-4.946-8.5333-6.842-11.986-6.669-11.552-16.833-21.166-28.394-28.265-11.766-7.2192-25.206-11.78-38.899-14.346-22.358-4.2078-45.607-2.6688-67.538 1.2893-23.602 4.2921-47.021 11.751-68.386 18.881-38.585 12.955-67.221 22.867-100.03 27.518-49.505 6.9475-87.428-2.6729-100.34-7.2144-14.488-5.0946-4.895-4.053 9.799-2.5481 16.37 1.6766 49.153 4.7136 88.446-2.8223 31.342-5.9569 56.957-16.092 96.709-30.424 21.061-7.6388 45.209-15.828 70.468-20.822 8.78-1.747 17.887-3.0958 27.199-3.8504 15.612-1.2649 31.383-0.8259 46.949 1.9454 15.858 2.8343 31.321 8.2551 45.186 16.696 14.193 8.6353 26.288 20.544 34.55 34.861 4.263 7.1084 6.505 13.344 10.249 16.337 2.01 1.9274 4.755 3.3422 7.685 4.2075 2.986 0.8804 6.328 1.0707 9.69 0.7792 6.879-0.5046 13.931-3.7483 20.752-7.6245 10.462-6.0807 20.178-14.33 30.921-21.594 16.73-11.507 35.097-19.31 54.211-20.497 15.842-0.9129 30.875 3.4183 42.551 11.506 13.676 9.5029 21.417 23.751 23.095 37.308 1.969 17.472-5.346 31.719-13.155 40.547-7.989 9.062-16.911 13.324-22.191 15.078z" fill="#1e1712"/>
     <path class="UnoptimicedTransforms" transform="matrix(.10583 -.011186 .011186 .10583 -3746.1 244.09)" d="m30456 3784.9c0.551-1.7586 12.213 0.7328 31.724 2.2498 14.701 1.1589 34.017 0.8575 57.041 1.4703 17.272 0.4012 38.131 1.7971 58.459 8.3368 5.384 1.7552 10.508 3.79 15.594 5.8735 8.984 3.6801 16.878 7.0826 24.968 9.0398 11.169 2.8604 23.317 3.1078 34.528 2.8875 24.207-0.595 43.396-3.7982 59.377-7.9754 21.196-5.524 33.501-11.295 34.465-9.582s-9.705 10.825-31.199 19.442c-16.047 6.4203-36.61 11.588-61.937 13.293-11.834 0.8518-25.351 0.9034-39.038-2.1909-9.779-2.3244-18.578-5.9223-27.453-9.5556-5.032-2.0601-9.769-3.9913-14.487-5.5817-17.588-6.015-37.268-7.8648-54.036-9.2119-25.05-1.9249-40.095-2.6735-57.734-6.5086-20.058-4.3817-30.823-10.228-30.272-11.986z" fill="#1e1712"/>
     <path class="UnoptimicedTransforms" transform="matrix(.1033 0 0 .1033 -3625.6 -89.389)" d="m29556 2422.5c7.41 4.3093 22.353-6.6282 45.131-25.113 22.888-18.574 53.805-44.314 95.155-68.589 39.531-23.13 88.351-44.568 143.13-54.929 20.902-4.0369 42.837-6.5546 65.982-7.9574 4.904-0.2972 9.81-0.5412 14.71-0.7391 28.487-1.1346 57.63-0.479 85.555 0.511 74.413 2.7035 124.15 6.7231 184.1 2.9781 84.516-5.334 133.9-25.281 132.85-39.143-1.118-14.679-51.869-22.394-129.18-35.602-38.073-6.4686-119.47-21.653-180.8-27.867-29.935-3.0573-62.279-4.927-95.967-3.983-5.784 0.1595-11.613 0.4116-17.482 0.7645-27.681 1.6645-54.856 5.4892-81.293 11.714-70.752 16.865-128.43 50.369-170.7 86.746-44.052 37.822-70.644 77.858-84.076 107.56-13.564 29.99-14.217 49.523-7.115 53.652z" fill="#080505"/>
     <path class="UnoptimicedTransforms" transform="matrix(.1033 0 0 .1033 -3625.6 -89.389)" d="m30681 2229.5c1.118-14.678 51.877-22.392 129.18-35.599 38.085-6.471 119.47-21.655 180.8-27.87 29.937-3.0581 62.281-4.9278 95.967-3.984 5.784 0.1595 11.613 0.4116 17.482 0.7645 27.683 1.6646 54.858 5.4893 81.293 11.714 70.759 16.866 128.44 50.372 170.7 86.744 44.058 37.827 70.65 77.866 84.079 107.56 13.562 29.989 14.212 49.519 7.11 53.649-7.412 4.3095-22.353-6.6245-45.13-25.108-22.885-18.571-53.805-44.315-95.158-68.592-39.527-23.128-88.343-44.568-143.13-54.931-20.9-4.0369-42.835-6.555-65.982-7.9579-4.904-0.2972-9.81-0.5412-14.71-0.7391-28.486-1.1347-57.627-0.4796-85.555 0.5101-74.401 2.7019-124.14 6.7209-184.1 2.9753-84.507-5.3341-133.9-25.278-132.85-39.138z" fill="#080505"/>
    </g>
   </g>
  </g>
  <path class="UnoptimicedTransforms" transform="matrix(.27604 0 0 .27604 77.28 78.568)" d="m39.651 203.15c-16.394 27.4-40.292 92.734-68.653 105.16-24.876 10.898-49.954 11.586-75.033 6.0406-19.025-4.2067-36.831-8.0126-48.688-26.414-19.104-27.446-25.165-120.9-3.1364-145.01 18.613-21.341 36.503-49.333 37.25-79.267 2.8454-38.521-0.72981-79.535 28.73-110.03 37.062-41.006 93.947-39.255 145.23-35.633 30.95-1.1093 68.512 5.3719 97.817-10.014 34.367-17.574 60.506-46.856 100.98-48.604 52.41-6.2342 103.01 42.069 116.4 93.156 14.981 46.902-7.5863 104.4-54.776 122.56-41.046 16.291-83.814 11.122-114.08-18.587-17.697-21.102-33.267-62.401-84.442-41.594-22.597 9.1877-33.081 11.586-63.378 3.039-28.991-8.1789-76.655-8.5049-97.28 18.627-16.576 19.561 2.8515 50.558 19.331 65.242 27.032 26.323 62.625 30.53 68.934 71.64 1.7351 10.34-1.057 20.331-5.1984 29.701zm2.528-9.7868c7.2864-35.605-17.487-47.72-43.555-66.263-23.984-17.726-55.785-40.105-52.445-72.481 3.1375-30.412 40.937-44.035 69.145-44.188 15.372 1.2149 23.826 1.6298 36.303 4.4892 23.593 5.4067 40.261 10.009 56.239-0.35422 24.126-11.245 52.755-10.401 71.949 8.8673 20.206 26.318 31.147 45.405 61.003 53.637 36.584 16.978 90.227-0.84714 112.1-35.881 36.19-52.232 5.2761-155.52-55.089-172.45-44.151-14.176-93.935 4.8344-127.99 33.142-34.109 24.15-76.379 18.464-114.99 18.158-48.513-3.3639-105.62-2.5426-141.13 36.064-30.127 31.367-26.634 77.338-32.648 116.22-3.1295 36.534-22.71 49.936-39.83 79.345-13.356 23.755-12.11 95.114 6.8527 130.72 9.9725 18.728 32.952 27.146 46.016 30.628 17.324 4.6168 48.753 13.497 82.724-10.419 19.214-13.527 32.898-45.787 45.206-66.069 5.349-8.8148 17.846-32.826 20.141-43.173z" fill="#080505" stroke-width=".9585px"/>
  <g transform="matrix(.27604 0 0 .27604 230.5 52.503)" fill="#1e1712" stroke-width="3.6227">
   <path class="UnoptimicedTransforms" transform="matrix(.1033 0 0 .1033 -3643 -63.138)" d="m33078 1014.4c2.845-8.1141 15.39 2.2387 33.305 29.459 17.473 26.55 40.855 70.9 59.603 127.75 13.473 40.828 24.652 88.882 28.828 141.68 0.895 11.311 1.447 22.578 1.656 33.786 1.181 64.815-9.659 124.15-27.575 174.78-17.223 48.481-39.965 86.339-59.384 111.83-19.489 25.579-35.615 39.208-43.068 40.448-9.209 1.501-3.998-14.612 7.401-43.17 11.184-28.02 29.841-72.093 42.734-124.9 9.483-38.604 16.033-82.056 17.24-130.19 0.233-9.2842 0.26-18.514 0.1-27.677v-1e-4c-1.024-58.486-9.966-113.75-20.623-162.02-20.369-92.152-45.181-157.6-40.212-171.78z"/>
   <path class="UnoptimicedTransforms" transform="matrix(.1033 0 0 .1033 -3627.4 -73.816)" d="m31225 1099c-5.453-5.156 65.885-17.767 178.98-55.737 46.678-15.666 97.049-34.903 155.02-60.023 46.786-20.274 88.816-40.064 141.36-64.314 43.113-19.907 90.254-41.306 138.5-60.194 3.999-1.5662 8.018-3.1187 12.055-4.6558 44.772-17.045 89.199-31.188 133.84-41.697 56.043-13.176 110.66-20.056 162.62-21.823 69.415-2.3345 133.47 4.2837 187.64 13.793v1e-5c134.79 23.662 215.09 60.038 218.12 67.417 1.448 3.8757-19.199 0.21036-57.647-7.6403-35.887-7.3278-97.335-20.263-165.1-28.204v0c-52.862-6.1952-114.97-10.077-181.14-5.9761-49.356 3.0401-101.2 10.58-154.55 23.733-31.717 7.8096-63.622 17.522-96.07 28.891-14.88 5.2134-29.595 10.677-44.114 16.307-46.729 18.128-93.681 38.892-137.01 58.01-51.624 22.79-96.938 42.669-144.11 61.207-59.456 23.366-112.48 40.703-160.95 53.484-110.28 29.073-182.2 32.216-187.44 27.422z"/>
   <path class="UnoptimicedTransforms" transform="matrix(.1033 0 0 .1033 -3625.6 -89.389)" d="m29021 2718.6c3.502 1.2418-6.295 36.44-20.167 97.932-13.876 61.504-31.185 149.55-38.124 256.17-6.766 103.94-3.437 221.64 18.601 347.86 0 1e-4 0.204 1.166 0.204 1.1661 16.87 96.204 42.578 184.63 72.539 263.96 29.924 79.242 63.243 147.22 94.383 203.49 62.01 112.06 111.65 175.31 107.38 178.79s-62.121-53.824-131.67-164.44c-34.9-55.507-71.723-123.89-104.34-204.44-32.664-80.665-60.237-171.42-77.629-270.46 0 1e-4 -0.21-1.2002-0.21-1.2001-22.674-129.87-24.177-251.29-13.858-357.54 10.596-109.06 33.251-198.01 53.105-258.77 19.864-60.797 36.283-93.762 39.785-92.52z"/>
   <path class="UnoptimicedTransforms" transform="matrix(.1033 0 0 .1033 -3625.6 -89.389)" d="m29111 2989.8c5.13 0.5478 1.092 48.716 14.779 123.43 5.999 32.82 15.844 69.978 32.007 109.95 13.293 32.891 30.397 66.496 51.816 101.04 19.696 31.762 42.306 63.066 67.832 94.738 0.886 1.1001 1.775 2.1999 2.667 3.2994 52.892 65.19 114.11 126.45 162.61 174.82 55.895 55.7 90.104 89.202 123.37 125.7 28.844 31.65 43.63 51.537 41.014 54.153-2.617 2.6166-22.224-12.29-55.016-39.488-27.246-22.598-84.52-71.133-133.22-115.26-51.678-46.792-114.35-106.58-169.76-174.75-0.925-1.1376-1.847-2.2762-2.765-3.4157-26.44-32.816-49.76-65.936-69.78-99.798-21.789-36.852-38.725-73.24-51.211-108.83-15.181-43.293-22.974-83.537-26.144-118.57-7.199-79.866 6.667-127.57 11.797-127.03z"/>
   <path class="UnoptimicedTransforms" transform="matrix(.1033 0 0 .1033 -3625.6 -89.389)" d="m29263 1316.3c2.402 3.6675-38.299 31.131-96.183 91.514-24.23 25.269-51.209 56.861-77.366 95.374-20.67 30.425-40.66 64.929-58.985 103.93-16.185 34.448-30.732 71.723-43.61 112.24-12.015 37.804-22.274 77.56-31.143 119.79-8.515 40.557-15.52 82.434-21.528 126.3-11.787 86.014-18.783 172.17-25.746 267.09-0.226 3.0863-2.478 34.225-2.704 37.312-6.035 83.837-11.539 161.13-19.658 239.94-10.245 99.589-23.616 189.78-43.292 275.85-10.872 47.526-23.292 91.862-37.281 133.5-15.893 47.308-33.433 89.875-51.949 128.16-23.204 47.973-47.406 88.006-69.956 120.53-52.009 75.013-91.894 109.37-95.286 106.39s29.801-42.824 74.332-119.7c19.334-33.373 40.213-73.526 60.288-121.09 16.024-37.96 31.167-79.783 44.921-126.2 12.107-40.855 22.811-84.207 32.215-130.79v-1e-4c17.08-84.553 28.453-172.64 37.584-271.38 7.274-78.79 12.181-153.99 18.289-238.79 0.902-12.524 1.812-24.979 2.742-37.409 7.092-94.933 14.976-182.84 28.171-270.22 6.757-44.722 14.726-87.663 24.379-129.31 10.052-43.379 21.755-84.402 35.397-123.4 14.623-41.808 31.204-80.315 49.565-115.74 20.8-40.13 43.48-75.371 66.825-106.04v-1e-4c29.572-38.834 59.867-69.815 87.08-93.792 65.026-57.28 110.5-77.72 112.9-74.052z"/>
   <path class="UnoptimicedTransforms" transform="matrix(.06925 0 0 .06925 -2530.4 -11.92)" d="m33079 1014.2c1.731-7.512 13.157 3.3046 30.105 30.912 16.478 26.842 38.991 71.424 57.054 127.99 12.991 40.659 23.829 88.381 27.888 140.67 0.87 11.204 1.408 22.36 1.614 33.455 1.165 64.152-9.275 122.84-26.554 173.1-16.593 48.107-38.548 85.958-57.148 111.69-18.583 25.711-34.225 40.06-40.534 41.838-8.223 2.2897-1.957-13.206 10.377-41.307 12.164-27.713 31.765-71.522 45.423-124.86 10.009-38.911 16.93-82.87 18.235-131.56 0.252-9.3918 0.288-18.728 0.121-27.997-1.043-59.16-10.357-114.88-21.607-163.36-21.492-92.525-48.022-157.33-44.974-170.57z"/>
  </g>
 </g>
</svg>
