<?xml version="1.0" encoding="UTF-8"?>
<!-- Created with Inkscape (http://www.inkscape.org/) -->
<svg width="281.73" height="117.78" version="1.1" viewBox="0 0 74.54 31.161" xmlns="http://www.w3.org/2000/svg" xmlns:xlink="http://www.w3.org/1999/xlink">
 <defs>
  <linearGradient id="linearGradient45476" x1="779.13" x2="999.2" y1="498.73" y2="498.73" gradientUnits="userSpaceOnUse" xlink:href="#linearGradient44132"/>
  <linearGradient id="linearGradient44132">
   <stop stop-color="#b48e8c" offset="0"/>
   <stop stop-color="#877787" stop-opacity="0" offset="1"/>
  </linearGradient>
 </defs>
 <g transform="translate(-53.34 -61.186)">
  <g transform="matrix(.26458 0 0 .26458 -44.861 49.561)">
   <path class="UnoptimicedTransforms" transform="matrix(1.1581 -.29099 .31031 1.086 -729.67 -193.15)" d="m891.9 467.41c-0.32936 0.26571-2.6506-2.4968-7.91-5.8466s-14.029-7.3293-24.824-6.2266c-1e-5 1e-5 -1e-5 0-1e-5 0-9.785 0.97245-21.67 6.8019-28.14 18.208-3.9233 6.84-5.6819 15.434-4.7669 24.256 0.83841 8.1002 3.9694 16.229 8.8767 23.59 1.8386 2.7795 3.9165 5.4123 6.2109 7.9115 9.6496 10.511 22.553 18.002 34.593 23.602h1e-5c25.051 11.537 48.333 15.818 65.16 17.531 16.741 1.704 26.819 1.1825 26.869 1.8939 0.0505 0.71144-9.9871 2.5712-27.135 1.9094-17.219-0.66463-41.357-4.2382-67.411-15.757h-1e-5c-12.612-5.5208-26.226-13.36-36.783-24.859-2.5037-2.7269-4.7941-5.6142-6.8463-8.6712-5.4388-8.158-8.8298-17.304-9.7047-26.542-0.9544-10.096 1.3022-19.879 6.0194-27.753 7.9445-13.14 21.606-19.116 32.733-19.692h1e-5c12.246-0.60404 21.411 4.4746 26.553 8.6582s6.8346 7.5205 6.5053 7.7862z" fill="url(#linearGradient45476)" stop-color="#000000" style="-inkscape-stroke:none;font-variation-settings:normal"/>
   <path class="UnoptimicedTransforms" transform="matrix(-.60022 -.56719 -.60941 1.0751 1404.7 -33.974)" d="m789.98 555.69c0.11986 0.11688-1.1617 1.9022-4.3869 4.3868-3.0947 2.3841-8.6373 5.7126-16.219 6.7623-6.68 0.92213-15.312 6e-3 -23.328-4.8791-6.3369-3.8671-12.155-10.267-15.137-18.648-2.5841-7.2769-2.9141-15.939-0.0236-24.146 1e-5 0 1e-5 -2e-5 1e-5 -2e-5 2.8546-8.0508 8.6828-15.315 16.5-20.293 7.2525-4.6164 15.938-7.2181 24.999-7.6672 13.002-0.6155 25.919 2.9613 38.28 9.0021 3.7524 1.8337 7.374 3.8554 10.837 5.9766 14.219 8.6665 26.529 18.848 38.701 27.485 29.611 21.008 57.831 33.548 78.656 41.161 20.678 7.5586 33.45 10.403 33.357 10.805-0.093 0.40271-13.061-1.6948-34.087-8.7168-21.162-7.0672-49.89-19.304-79.979-40.334-12.37-8.6445-24.677-18.745-38.601-27.188-3.3925-2.0467-6.9198-4.0021-10.552-5.7777-11.966-5.8504-24.239-9.3426-36.434-8.7346-8.4838 0.40286-16.593 2.7532-23.289 6.971-7.2025 4.5344-12.648 11.137-15.295 18.421v1e-5c-2.7112 7.4071-2.5294 15.372-0.26834 22.064 2.6011 7.7166 7.8739 13.771 13.668 17.487 7.3319 4.7073 15.426 5.8263 21.775 5.1815 7.2038-0.72852 12.697-3.6402 15.877-5.7209 3.3138-2.1679 4.8285-3.7145 4.9484-3.5976z" fill="url(#linearGradient45476)" stop-color="#000000" style="-inkscape-stroke:none;font-variation-settings:normal"/>
   <text x="461.93295" y="79.629791" fill="#776b76" font-family="sans-serif" font-size="59.962px" style="line-height:1" xml:space="preserve"><tspan x="461.93295" y="79.629791"/><tspan x="461.93295" y="139.59209" dominant-baseline="auto" font-family="'Josefin Sans'" font-size="40.475px" font-weight="100" stop-color="#000000" text-align="center" style="-inkscape-stroke:none;font-feature-settings:normal;font-variant-alternates:normal;font-variant-caps:normal;font-variant-east-asian:normal;font-variant-ligatures:normal;font-variant-numeric:normal;font-variant-position:normal;font-variation-settings:normal;line-height:0.6;text-decoration-color:#000000;text-decoration-line:none;text-decoration-style:solid;text-indent:0;text-orientation:mixed;text-transform:none;white-space:normal">Works</tspan></text>
   <text x="507.25964" y="98.686089" fill="#2a252a" font-family="sans-serif" font-size="59.962px" text-align="center" text-anchor="middle" word-spacing="0px" style="line-height:0.6" xml:space="preserve"><tspan x="507.25964" y="98.686089" fill="#2a252a" font-family="'Josefin Sans'" font-size="35.977px" font-weight="100" text-align="center" text-anchor="middle" style="font-variant-caps:normal;font-variant-east-asian:normal;font-variant-ligatures:normal;font-variant-numeric:normal">Shelby  Shipley</tspan></text>
  </g>
 </g>
</svg>
