<?xml version="1.0" encoding="UTF-8"?>
<!-- Created with Inkscape (http://www.inkscape.org/) -->
<svg version="1.1" viewBox="0 0 360 360" xmlns="http://www.w3.org/2000/svg" xmlns:cc="http://creativecommons.org/ns#" xmlns:dc="http://purl.org/dc/elements/1.1/" xmlns:rdf="http://www.w3.org/1999/02/22-rdf-syntax-ns#">
 <title>Moon Menu</title>

 <g transform="translate(-285.67 -68.125)">
  <circle id="outer-circle" transform="rotate(8.0972)" cx="495.97" cy="180.06" r="180" fill="#bca85e" stop-color="#000000" style="font-variation-settings:'wght' 200;paint-order:stroke markers fill"/>
  <circle transform="rotate(145.65)" cx="-247.23" cy="-418.93" r="131.23" fill="#2f2f44" stop-color="#000000" style="font-variation-settings:'wght' 200;paint-order:stroke markers fill"/>
  <g fill="none" stroke-opacity="0">
   <path d="m373.03 383.34a165.56 165.56 40.704 0 0 227.57-55.065 165.56 165.56 40.704 0 0-55.065-227.57 165.56 165.56 40.704 0 0-227.57 55.065 165.56 165.56 40.704 0 0 55.065 227.57z" stop-color="#000000" style="font-variation-settings:'wght' 200;paint-order:stroke markers fill"/>
   <path d="m469.76 407.25a165.56 165.56 5.6833 0 0 154.77-175.69 165.56 165.56 5.6833 0 0-175.69-154.77 165.56 165.56 5.6833 0 0-154.77 175.69 165.56 165.56 5.6833 0 0 175.69 154.77z" stop-color="#000000" style="font-variation-settings:'wght' 200;paint-order:stroke markers fill"/>
   <path d="m606.99 316.78a165.56 165.56 36.152 0 0-72.955-222.48 165.56 165.56 36.152 0 0-222.48 72.955 165.56 165.56 36.152 0 0 72.955 222.48 165.56 165.56 36.152 0 0 222.48-72.955z" stop-color="#000000" style="font-variation-settings:'wght' 200;paint-order:stroke markers fill"/>
  </g>
  <circle transform="rotate(145.65)" cx="-247.23" cy="-418.93" r="131.23" fill="#2f2f44" stop-color="#000000" style="font-variation-settings:'wght' 200;paint-order:stroke markers fill"/>
 </g>
 <g>
  <path transform="matrix(-.25744 .020769 -.020734 -.2583 186.27 308.99)" d="m-240.23 129.09c14.976-8.6462 54.805 31.642 69.781 40.288s69.781 22.996 69.781 40.288-54.805 31.642-69.781 40.288-54.805 48.934-69.781 40.288-1e-5 -63.284-1e-5 -80.576-14.976-71.93 1e-5 -80.576z" fill="#434358" stop-color="#000000" style="font-variation-settings:'wght' 200;paint-order:stroke markers fill"/>
  <circle transform="matrix(-.76654 .52394 -.52394 -.76654 -254.16 -53.368)" cx="-247.23" cy="-418.93" r="131.23" fill="#232333" stop-color="#000000" style="font-variation-settings:'wght' 200;paint-order:stroke markers fill"/>
  <g stroke="#31241c">
   <path d="m235.35 168.75c0 18.171-2.5064 17.234-20.84 26.517-19.646 9.948-55.817 29.465-75.289 29.465-37.643 0-49.921-21.552-49.921-59.194 0-19.354 26.398-90.001 39.353-102.41 12.242-11.724 20.718-1.9167 39.006-1.9167 16.027 0 23.039-17.742 34.677-8.4832 15.696 12.487 33.014 94.405 33.014 116.02z" fill="#3d2d23" stop-color="#000000" style="paint-order:stroke markers fill"/>
   <g fill="#573d2c">
    <path d="m217.42 163.5c-1.6105 2.1094-7.1626-36.584-8.627-35.064-23.9 24.802-25.318 15.33-45.112 13.902-37.474-1.349-52.814 7.2998-53.054-28.417-0.13047-19.354-5.7497-43.634 7.2055-56.041 12.242-11.724 37.41-22.318 55.698-22.318 16.027 0 38.313 8.3177 49.514 18.1 6.0867 5.3158 16.945 23.328 18.618 44.357 2.7389 34.439-8.2414 74.886-24.242 65.481z" stop-color="#000000" stroke-width="3" style="paint-order:stroke markers fill"/>
    <path d="m166.47 57.2c1.7362-0.46926 4.2898-0.88961 7.3846-0.82505 2.4559 0.05123 5.4464 0.40053 9.427 1.3828 3.5579 0.87791 7.9577 2.2961 11.795 4.6931 1.8341 1.1457 3.5002 2.4859 4.9072 4.0538 1.3755 1.5327 2.483 3.2592 3.2886 5.2281 0.80359 1.9672 1.4208 4.3694 1.8704 7.1834 0.44789 2.8034 0.70827 5.8778 0.85514 9.1219 0.14785 3.2655 0.17653 6.5927 0.18468 9.8943 8e-3 3.266-5e-3 6.6761 0.0793 9.6834 0.18327 6.5191 0.77344 11.638 1.623 16.424 0.88236 4.9708 2.1344 9.9563 3.2056 14.114 1.4262 5.5348 2.8707 11.013 3.945 15.267 0.216 0.85529 0.42894 1.6991 0.62201 2.4562 0.7933 3.1107 2.3938 7.3869 3.6853 11.531 1.1732 3.764 2.0201 7.5152 2.3876 11.212 0.16575 1.6675 0.22414 3.2381 0.1829 4.6838-0.0408 1.4309-0.17925 2.7359-0.40639 3.8701-0.23512 1.1746-0.62178 2.241-1.2423 3.2566-0.66156 1.0827-1.5409 2.0242-2.5775 2.8427-2.6103 2.061-5.9986 3.1686-7.9016 3.3499 2.056-0.19591 5.0735 0.52702 9.0833 0.65221 1.5317 0.0478 3.2876-0.0261 5.1694-0.45863 1.787-0.41078 3.688-1.1452 5.6101-2.3878 1.8632-1.2045 3.6318-2.7895 5.2465-4.6938 1.6224-1.9135 3.0692-4.125 4.304-6.5621 2.6985-5.3261 4.2436-11.436 4.6796-17.564 0.47697-6.7052-0.31398-12.889-1.2621-16.607-0.24512-0.9612-0.52229-1.9621-0.83184-3.0005-1.5589-5.2294-3.7896-10.909-6.3629-16.529-1.8372-4.0131-3.8721-7.8933-5.7093-11.906-1.5542-3.3868-3.0757-7.1569-4.364-12.367-0.63392-2.5636-1.2127-5.5674-1.861-8.948-0.62745-3.2718-1.3139-6.8612-2.1444-10.42-0.82675-3.5431-1.8174-7.1524-3.0902-10.556-1.2719-3.4011-2.8606-6.6921-4.9186-9.5366-2.0906-2.8881-4.5379-5.1163-7.0933-6.8235-2.5937-1.7328-5.3052-2.9342-7.9091-3.769-5.4066-1.7333-10.751-2.0143-14.603-1.8871-4.4362 0.1465-7.6469 0.84904-10.085 1.5602-3.2034 0.93444-5.3584 1.891-7.1736 2.3816z" stroke-width="1.4"/>
   </g>
  </g>
  <g>
   <path d="m136.71 185.95c-12.014 0.74293-14.848 4.0497-28.911 7.5435-14.063 3.4938-39.35 7.1738-49.541 12.408-10.191 5.2342-5.2693 12.017 0.12917 18.137 5.3985 6.12 11.282 11.587 21.334 17.746s24.274 13.013 44.045 16.837c19.771 3.8248 45.089 4.6211 64.619 1.6676s33.27-9.6563 43.932-17.488 18.245-16.793 23.127-23.569 7.0605-11.365 1.53-15.513c-5.5306-4.1478-18.769-7.8519-31.034-10.256-12.265-2.4046-23.554-3.5085-39.791-4.9711-16.237-1.4626-37.424-3.2839-49.438-2.5409z" fill="#434358" stroke="#434358" stroke-width="3"/>
   <path d="m123.36 199.58c-4.9582-6.5639 1.4918-9.7334 2.2521-15.142 0.76038-5.4084-4.1743-13.07-3.0132-17.998 1.1611-4.9273 8.4125-7.1345 12.791-6.1744s5.8722 5.0774 9.5791 9.3972 9.6107 8.8218 18.443 8.4742 20.587-5.5483 25.849-9.1407c5.2626-3.5925 4.0332-5.5784 5.8305-5.474 1.7973 0.10436 6.6197 2.2991 7.1428 7.1054s-3.2507 12.218-2.7948 17.172c0.45584 4.9544 5.1417 7.4421-0.55191 13.402-5.6936 5.9601-21.771 15.398-37.996 15.141-16.225-0.25662-32.573-10.2-37.531-16.764z" fill="#232333" stroke="#232333" stroke-width=".99999px"/>
  </g>
  <g fill="#573d2c" stroke="#31241c">
   <path d="m171.38 49.613c-2.7543 0.46104-6.292 0.71762-10.824 1.2358-3.4389 0.39318-7.6633 0.98474-12.658 2.1935-4.3934 1.0633-9.8606 2.7194-15.182 5.416-5.0219 2.545-10.3 6.2081-14.42 11.604-2.0324 2.6625-3.687 5.6023-5.1096 8.61-1.4161 2.9942-2.6284 6.1139-3.7435 9.1208-2.3861 6.434-4.1376 11.683-6.6266 16.2-2.4282 4.4068-5.6483 8.4879-9.08 12.699-3.9301 4.8224-7.8602 9.4955-11.47 15.051-4.3866 6.7499-7.4388 13.375-9.2818 18.623-0.37968 1.081-0.71196 2.1131-1 3.092-0.54101 1.8382-1.0016 4.0906-1.2763 6.594-0.31293 2.8525-0.3938 6.1271-0.02116 9.4737 0.64324 5.7762 2.6271 10.792 5.5751 14.69 2.6576 3.5145 5.6763 5.5726 8.0896 6.6857 2.5803 1.19 4.6802 1.6405 6.3683 1.8376 2.2753 0.26568 3.5344 0.0985 4.2867 0.61657-0.66175-0.45574-1.2206-1.8331-1.5571-3.773-0.27403-1.5796-0.36307-3.1421-0.60272-5.5185-0.22999-2.2822-0.23567-4.2918 0.18976-6.5182 0.42361-2.2169 1.2704-4.5065 2.2271-6.919 0.44532-1.1227 1.426-3.6794 1.9323-5.0324 0.56359-1.5061 1.1-2.9969 1.478-4.2815 0.20222-0.68707 0.42199-1.43 0.66298-2.224 1.1905-3.9224 2.905-9.0898 5.448-14.686 2.2866-5.0338 4.4558-8.6916 7.9303-15.136 2.7516-5.1033 5.8978-11.26 7.9743-18.156 1.9352-6.4266 2.8373-13.492 3.7456-19.373 0.46554-3.0147 0.94033-5.8212 1.5485-8.4448 0.6062-2.6151 1.326-4.9608 2.2458-7.0266 1.8992-4.2602 5.0254-7.9233 8.8225-11.088 3.98-3.3168 8.4758-5.8993 12.4-7.8901 4.4116-2.2383 8.1904-3.7794 11.45-4.9076 4.1375-1.4319 7.8205-2.3231 10.477-2.7678z" stroke-width="1.4"/>
   <path d="m200.23 69.983c-3.2543-1.9217-7.1472-4.6972-12.653-7.6557-4.1845-2.2483-9.5853-4.6815-16.881-6.4567-6.4136-1.5605-14.913-2.7614-23.61-1.9153-4.1654 0.40518-8.4918 1.292-12.689 2.9196-4.1301 1.6016-8.1792 3.9384-11.803 7.2725-3.5824 3.2968-6.5525 7.3807-9.0463 11.764-2.4922 4.3803-4.5511 9.1344-6.2934 13.851-1.7545 4.7491-3.2122 9.5272-4.4673 13.911-1.2784 4.4654-2.3608 8.5648-3.3328 11.884-2.048 6.9936-3.6954 11.108-5.3145 14.298-0.8483 1.6715-1.7107 3.1284-2.5879 4.5344-0.906 1.4521-2.0273 3.1611-3.1114 4.8362-1.2676 1.959-2.6663 4.1684-4.0183 6.4723-1.6078 2.7401-3.051 5.4452-4.2697 8.1308-0.45384 1.0001-0.86686 1.9762-1.2391 2.9286-0.68983 1.7648-1.3844 4.0828-1.8839 6.7724-0.56604 3.048-0.93854 6.8896-0.56022 11.016 0.6485 7.0741 3.5344 13.499 7.6303 18.481 1.8673 2.2713 3.9507 4.1982 6.1084 5.7109 2.1409 1.5009 4.3822 2.6127 6.5787 3.232 2.3021 0.649 4.3895 0.68292 6.2128 0.30907 1.9094-0.39152 3.393-1.1903 4.5869-2.0264 1.2836-0.89887 2.4271-2.0004 3.2926-2.8284 1.2206-1.1677 2.1614-2.0592 3.1232-2.6455-0.89141 0.54334-2.2633 1.0785-3.7912 1.3721-1.1972 0.23004-2.5297 0.31257-3.7438 0.0818-1.1048-0.21003-2.0074-0.65335-2.6937-1.3309-0.62958-0.62151-1.0262-1.3747-1.4344-2.3174-0.41032-0.94787-0.8814-2.0739-1.3221-3.4924-0.43751-1.4084-0.79194-2.9436-0.98837-4.5584-0.44461-3.6551 0.0304-6.6999 1.0277-9.1451 0.61084-1.4978 1.2642-2.9138 2.0382-4.582 0.63658-1.3719 1.2634-2.723 1.7313-3.9201 0.25161-0.64368 0.51792-1.32 0.81691-2.0662 0.86335-2.1548 1.6737-4.0843 2.8595-6.8514 0.86711-2.0234 2.0284-4.7063 2.9542-7.0103 0.88906-2.2121 1.7257-4.4899 2.4678-6.873 0.69955-2.2463 1.3071-4.5569 1.8447-7.1208 1.0117-4.8243 1.6792-10.053 2.5504-17.632 0.41862-3.6418 0.85977-7.6604 1.4684-12.018 0.59506-4.2599 1.335-8.7219 2.3162-13.099 0.97615-4.3548 2.174-8.5479 3.6685-12.33 1.4981-3.7912 3.2495-7.0557 5.2904-9.6476 2.0578-2.6118 4.5919-4.7441 7.5189-6.4606 2.9882-1.7523 6.3283-3.0365 9.8424-3.9367 7.3975-1.895 15.221-2.0061 21.548-1.5067 7.0916 0.55982 12.548 1.9034 16.974 3.4318 5.5178 1.9054 10.245 4.4227 13.285 6.2174z" stroke-width="1.8"/>
  </g>
  <path d="m213.04 130.86c0 37.643-23.862-53.721-52.116-53.721-28.254-7e-6 -47.82 47.945-47.82 10.302 0-13.653 11.422-30.264 19.156-33.144 12.722-4.7388 25.256-6.3613 39.118-4.6883 12.686 1.5311 25.518 2.5511 36.61 9.6597 6.3631 4.0779 13.081 17.515 13.533 27.311 0.15551 3.3748-8.4803 40.17-8.4803 44.28z" fill="#232333" stop-color="#000000" stroke="#232333" stroke-width="3" style="paint-order:stroke markers fill"/>
  <path d="m186.98 121.29c-0.14888 1.2645-0.86826 2.2614-2.0572 3.0971-2.0766 1.4596-4.8159 2.748-8.5048 2.2313-5.801-0.81262-10.172-4.2867-9.7633-7.7596 0.40892-3.4729 5.4431-5.6295 11.244-4.8169 5.801 0.81262 9.4901 3.7752 9.0812 7.2481z" fill="#dadaf3" stop-color="#000000" style="paint-order:stroke markers fill"/>
  <g transform="matrix(.7802 0 0 .85098 35.979 21.04)" stroke-width="1.2273">
   <circle transform="rotate(9.027)" cx="195.15" cy="85.064" r="8.59" fill="#344337" stop-color="#000000" style="paint-order:stroke markers fill"/>
   <circle transform="rotate(9.027)" cx="195.15" cy="85.064" r="4.3264" stop-color="#000000" style="paint-order:stroke markers fill"/>
   <path d="m176.06 112.92c-0.80876-0.25177-1.756-0.1581-2.2748 0.60135-0.51882 0.75944-0.60644 2.18-0.18073 2.7473 0.42571 0.56732 1.3618 0.28191 2.2148-0.17854 0.85306-0.46045 1.6207-1.0943 1.6706-1.7086 0.0499-0.6143-0.6211-1.2097-1.4298-1.4615z" fill="#dadaf3" stop-color="#000000" style="font-variation-settings:normal"/>
  </g>
  <g>
   <path d="m146.86 57.828c-7.9556 0.61707-14.998 9.1476-16.275 14.505-1.0669 4.4774-7.144 17.916-7.3149 22.572-0.10601 2.8866-4.8163 10.032-4.6792 12.918 0.0803 1.6904-0.73668 6.9785-1.2593 10.432-0.78743 5.2028-1.4362 8.7383-1.5569 9.415-0.74588 4.1811 2.0816 11.867 3.1563 15.994 6.4785 19.256 12.294 26.396 27.492 38.516 2.2018 1.7559 5.12 2.7642 10.634 3.2382 7.3128 0.62856 15.334-4.4999 23.216-8.9458 10.933-6.1669 17.931-15.192 20.031-23.526 3.8712-15.361 5.5244-38.796 5.8464-40.688 0.60899-3.5791-8.9256-26.631-8.7335-30.278 0.27659-5.2495-14.202-19.964-18.144-21.693-5.0807-2.2278-31.46-2.5338-32.413-2.4598z" fill="#f6d3bd" stop-color="#000000" stroke="#120b07" style="paint-order:stroke markers fill"/>
   <g fill="#775e4d">
    <path d="m171.67 130.21c-0.33359 0.63251 0.19441 2.0873 0.87544 2.5803 0.68103 0.49299 1.5151 0.0253 1.8484-0.60623 0.33328-0.63152 0.16577-1.428-0.51443-1.922-0.68021-0.49392-1.8758-0.68459-2.2094-0.0521z"/>
    <path d="m127.44 141.92c0.37552 0.14669 1.124 0.43906 1.483 0.19329 0.35903-0.24577 0.32737-1.0299-0.0697-1.4274-0.39712-0.39744-1.1605-0.40847-1.5199-0.16232-0.35943 0.24616-0.31409 0.74884-0.29151 0.99925 0.0226 0.25041 0.0226 0.25044 0.39815 0.39713z" stop-color="#000000" style="font-variation-settings:normal"/>
    <path d="m121.29 141.97c0.37495 0.32351 1.4649 0.35756 1.6352 0.0512 0.1703-0.30634-0.579-0.95347-1.1243-0.97063-0.54525-0.0172-0.88585 0.59591-0.5109 0.91941z" stop-color="#000000" style="font-variation-settings:normal"/>
    <path d="m193.67 130.44c-0.22814 0.48742-0.26302 1.3859-0.0293 1.6704 0.23374 0.28452 0.73622-0.0441 0.96409-0.53067 0.22786-0.48659 0.18083-1.1317-0.0525-1.4171-0.23333-0.28538-0.65416-0.21004-0.88231 0.27738z" stop-color="#000000" style="font-variation-settings:normal"/>
    <path d="m124.47 136.8c-0.35253 0.0515-1.057 0.15448-1.4051 0.58859-0.34805 0.4341-0.34032 1.1974 0.19634 1.4874 0.53665 0.29009 1.6029 0.10803 1.952-0.32474 0.34903-0.43276-0.0205-1.1173-0.20557-1.4601-0.18504-0.34276-0.18512-0.34272-0.53766-0.2912z" stop-color="#000000" style="font-variation-settings:normal"/>
    <path d="m192.89 124.93c0.21715 0.59208 1.3154 0.70397 1.7754 0.49746s0.28106-0.73054 0.0641-1.324c-0.21697-0.59349-0.47042-1.2519-0.92964-1.046-0.45923 0.20589-1.127 1.2806-0.90985 1.8726z" stop-color="#000000" style="font-variation-settings:normal"/>
    <path d="m174.24 144.47c0.6902 0.53894 2.6183 0.50538 2.8927-0.0504 0.27445-0.55573-1.1047-1.6343-2.0692-1.6178-0.96452 0.0165-1.5137 1.1292-0.82348 1.6682z" stop-color="#000000" style="font-variation-settings:normal"/>
    <path d="m131.9 133.89c-0.61012-0.33489-1.2337-0.70388-1.5914-0.17704-0.3577 0.52683-0.44532 1.9474-0.0196 2.5147 0.42571 0.56732 1.3618 0.28191 2.0149-0.0946 0.65314-0.37655 1.0221-0.84317 0.91053-1.2263-0.11152-0.38311-0.7043-0.68183-1.3144-1.0167z" stop-color="#000000" style="font-variation-settings:normal"/>
    <path d="m184.9 130.19c0.26722-0.53246 2.2193-0.52456 2.9275 0.0117 0.70821 0.53629 0.1737 1.6003-0.80171 1.5965-0.97541-4e-3 -2.393-1.0758-2.1258-1.6083z" stop-color="#000000" style="font-variation-settings:normal"/>
    <path d="m181.54 145.79c-0.43632 0.64908 0.43824 1.7556 1.3117 1.6597 0.87349-0.0959 1.7465-1.3931 1.31-1.9464-0.43646-0.55323-2.1854-0.3624-2.6217 0.28667z"/>
    <path d="m192.18 142.65c-0.43455-0.31022-1.7284-0.60065-2.2354-0.43732-0.50703 0.16332-0.22775 0.7799 0.20385 1.2701 0.43161 0.49017 1.0157 0.85435 1.3107 0.8565 0.29494 2e-3 0.30071-0.35851 0.51584-0.704 0.21513-0.34548 0.63958-0.67503 0.20503-0.98525z" stop-color="#000000" style="font-variation-settings:normal"/>
    <path d="m139.4 131.23c-0.85711-0.41062-1.7147-0.82148-2.1507-0.59114s-0.45129 1.1022 0.0226 1.6464c0.47392 0.54418 1.4365 0.75971 1.8726 0.52938 0.43602-0.23033 0.34568-0.90781 0.25544-1.5846h5e-5z"/>
    <path d="m118.29 127.09c0.47002 0.75017 2.3138 1.3827 2.7662 0.94915s-0.48661-1.9338-1.409-2.2504c-0.92235-0.31663-1.8272 0.55111-1.3572 1.3013z" stop-color="#000000" style="font-variation-settings:normal"/>
    <path d="m119.88 133.63c-0.10912 0.41661 0.38403 1.1026 1.0616 1.2044s1.5402-0.37941 1.8944-0.80049c0.3543-0.42107 0.20012-0.78321-0.1217-0.95967-0.32182-0.17647-0.81147-0.1645-1.412-0.0857-0.60052 0.0788-1.3133 0.2249-1.4224 0.6415z"/>
    <path d="m124.86 130.92c0.11393 0.30869 0.53591 0.48018 1.0632 0.51356 0.52727 0.0334 1.155-0.0703 1.2851-0.42154 0.13008-0.3512-0.24058-0.95029-0.66876-1.2079-0.42817-0.25759-0.91473-0.17361-1.2561 0.0924-0.34141 0.26598-0.53729 0.71479-0.42337 1.0235z" stop-color="#000000" style="font-variation-settings:normal"/>
    <path d="m170.67 136.88c-0.52697 0.0667-1.5798 0.20009-1.9384-0.0455-0.35857-0.24558-0.0238-0.87019 0.52489-1.1881 0.54872-0.31794 1.3121-0.32897 1.6715-0.0829 0.35944 0.24607 0.31418 0.74783 0.29155 0.9988-0.0226 0.25098-0.0226 0.25096-0.5496 0.31771z" stop-color="#000000" style="font-variation-settings:normal"/>
    <path d="m138.53 136.85c0.42879 0.31805 1.1027 1.4601 1.103 1.9928 3.5e-4 0.53268-0.6722 0.45634-1.2713 0.1962-0.59908-0.26014-1.1251-0.70412-1.2178-0.98414-0.0927-0.28003 0.24877-0.39634 0.51135-0.70692 0.26257-0.31058 0.44587-0.81594 0.87466-0.49789z" stop-color="#000000" style="font-variation-settings:normal"/>
    <path d="m179.09 138.51c-0.52236 0.46654-2.0628 0.5411-2.311 0.11204-0.24823-0.42907 0.79567-1.3623 1.5663-1.3998 0.77062-0.0375 1.2671 0.82119 0.74473 1.2877z" stop-color="#000000" style="font-variation-settings:normal"/>
    <path d="m167.76 127.83c-0.0301 0.34918-0.57913 0.68695-1.086 0.55915-0.50691-0.12781-0.97247-0.72036-1.1091-1.2383s0.0556-0.96192 0.31809-1.0152c0.26245-0.0533 0.5948 0.28576 1.0076 0.63655s0.89963 0.70865 0.86954 1.0578z"/>
    <path d="m197.88 138.94c-0.56452 0.28062-1.6168 0.34796-1.9573 0.0823-0.34045-0.26564 0.03-0.86443 0.59376-1.1459 0.56375-0.28147 1.3215-0.24534 1.6627 0.021 0.34126 0.26633 0.26533 0.76199-0.2992 1.0426z" stop-color="#000000" style="font-variation-settings:normal"/>
    <path d="m186.12 135.66c-0.41181 0.6782 0.5263 1.7585 1.4093 2.0547 0.88302 0.29615 1.7114-0.19074 2.1232-0.86798s0.40719-1.5457-0.47551-1.8429c-0.88271-0.29721-2.6452-0.022-3.057 0.65623z"/>
    <path d="m142.95 125.65c-0.45844 0.43304-0.12817 1.4864 0.24301 1.8277 0.37119 0.3413 0.78217-0.0298 1.242-0.46325 0.45983-0.43344 0.96496-0.926 0.59466-1.2668-0.3703-0.34081-1.6212-0.53067-2.0797-0.0976z" stop-color="#000000" style="font-variation-settings:normal"/>
    <path d="m133.29 139.74c-0.13079 0.33142-0.39213 0.99367-0.18886 1.5116 0.20328 0.51795 0.8691 0.89114 1.3878 0.57008s0.89152-1.3365 0.68973-1.8546c-0.2018-0.51812-0.97923-0.53829-1.3686-0.54838-0.38934-0.0101-0.38934-0.0101-0.52012 0.32129z" stop-color="#000000" style="font-variation-settings:normal"/>
   </g>
   <path class="UnoptimicedTransforms" transform="matrix(.89007 .1414 -.1414 .89007 47.408 -1.0119)" d="m130.74 104.08c0.29167-0.19015 1.801 1.1845 3.5801 4.3252 1.1145 1.9717 2.2706 4.7712 2.6885 8.2008 0.43644 3.5856 0.21191 7.8567-1.2511 12.189-1.207 3.5802-3.5824 6.5642-4.008 9.6465-0.045 0.14956-0.0661 0.30563-0.0658 0.46573 2e-3 0.97784 0.79628 2.0654 1.7283 2.6821 0.97983 0.67572 2.5084 0.99664 4.1269 1.7379 2.0166 0.85585 3.2811 2.0113 4.3593 2.0045 0.0852 0.0621 0.2999-0.0356 0.50126-0.16388 0.31042-0.21287 0.6649-0.66588 1.1377-1.1606 1.2754-1.3603 2.8115-2.288 4.3757-2.8071 2.4438-0.8395 4.3718-0.81353 5.4981-1.6193 0.72925-0.20013 0.66978-1.5382 0.43012-2.1961-0.66644-1.8138-2.1332-2.6702-1.9706-2.903 0.16263-0.23278 1.7084-0.19046 3.3536 2.1296 0.71877 1.0422 1.169 3.0951-0.47464 4.7111-1.9776 1.5904-3.7086 1.657-5.8661 2.5194-1.1063 0.4619-2.1702 1.2186-3.0082 2.24-0.32988 0.40952-0.76449 0.9902-1.4206 1.5756-0.70036 0.61624-1.6605 0.99859-2.7785 0.97999-2.4624-0.24777-4.0864-1.4228-5.5508-2.1035-1.2052-0.50355-2.8554-0.85462-4.6186-1.8898-1.8878-1.142-3.2561-3.1876-3.3816-5.6036-0.0205-0.39499-7e-3 -0.79712 0.0414-1.2036 0.82518-4.3317 3.2687-7.3625 4.3386-10.197 1.4137-3.7711 1.8215-7.5425 1.6901-10.801-0.11763-3.0217-0.86964-5.6649-1.5963-7.6292-1.1543-3.1316-2.1506-4.9401-1.8589-5.1302z" fill="#2b1f1a"/>
   <path d="m142.77 102.93c0.62274 0.0809 1.2789 0.26381 1.9147 0.67601 0.70982 0.5326 1.0088 1.4859 0.76219 2.4476-0.29616 0.84684-0.86659 1.4355-1.5042 1.7205-1.7841 0.74008-3.5618 0.0673-4.7617-0.15405-2.6368-0.38083-5.4929-0.72558-7.5394-0.80522-2.243-0.87621-7.9098-1.1723-9.4948 1.3031-2.4986 2.4652-3.0725 5.2028-3.2476 5.1186-0.17508-0.0841-0.0904-2.7792 2.5563-5.9434 1.5111-1.7371 3.6546-2.7012 6.3708-3.2143 3.154-0.63672 5.6448-0.73684 9.4549-1.0685 1.0373-0.092 2.1201-0.16782 3.2182-0.17075 0.3998-7.2e-4 0.79965 7e-3 1.1978 0.0269 0.33815 3e-3 0.69913 0.0148 1.0728 0.0635z" fill="#3d2d23" stop-color="#000000" stroke-width=".99999" style="paint-order:stroke markers fill"/>
   <path d="m143.69 120.49c-0.15564 1.2034-1.4008 3.019-2.5472 3.8009-2.0023 1.3656-4.637 2.5598-8.1616 2.0218-4.1413-0.63214-8.0404-3.0476-9.5691-5.6072-0.5173-0.86616-0.76315-1.7488-0.65507-2.5845 0.42746-3.3051 6.2294-4.6231 11.772-3.7771 5.5427 0.84607 9.5884 2.841 9.161 6.1461z" fill="#fff" stop-color="#000000" style="paint-order:stroke markers fill"/>
   <ellipse transform="matrix(.9924 .12308 -.1045 .99452 0 0)" cx="146.13" cy="101.29" rx="4.7463" ry="5.1454" fill="#3a3c31" stop-color="#000000" style="paint-order:stroke markers fill"/>
   <ellipse transform="matrix(.9924 .12308 -.1045 .99452 0 0)" cx="146.13" cy="101.29" rx="2.3905" ry="2.5915" stop-color="#000000" style="paint-order:stroke markers fill"/>
   <path d="m132.36 117.61c-0.25936 0.0404-0.77939 0.12143-1.047 0.59-0.26765 0.46857-0.28157 1.3218-0.0331 1.6504 0.24843 0.32864 0.75764 0.13305 1.2168-0.16517 0.45919-0.29823 0.8671-0.69809 0.87978-1.0674 0.0127-0.36934-0.37169-0.70836-0.56437-0.87831-0.19269-0.16995-0.1927-0.16995-0.45205-0.12954z" fill="#fff" stop-color="#000000" style="font-variation-settings:normal"/>
   <path class="UnoptimicedTransforms" transform="matrix(-.66214 .13456 .12386 .71935 193.85 21.168)" d="m94.321 118.32c1.0695-1.0877 2.9823 0.78548 6.3404 1.7015 1.5483 0.49718 2.8539 0.55568 5.3637 0.94051 1.9566 0.22246 3.9979 0.51294 5.5264 0.21756 0.54749-0.069 1.1097-0.18532 1.6931-0.34214 1.4118-0.37954 2.9204-0.99229 4.3735-1.599 1.9566-0.8768 3.461-1.6225 4.7394-2.5718 1.3826-1.0375 2.3453-1.9611 3.101-2.9593 1.3936-1.6132 2.098-3.6394 2.9959-3.5829 0.8979 0.0566 2.0881 1.5949 1.4792 5.2756-0.34867 1.8933-1.2858 4.0319-2.9615 5.9814-1.606 1.8684-3.6372 3.4377-5.9626 4.6861-1.6432 0.93199-3.576 1.8011-5.7718 2.3677-0.89452 0.23085-1.8092 0.40537-2.7415 0.51628-3.1876 0.27462-5.9265-0.32239-8.0202-0.99907-2.4356-0.70226-4.667-1.6428-6.5783-3.0785l-1e-6 -1e-5c-3.8874-3.1211-4.3417-5.7759-3.5766-6.554z" fill="#f6d3bd"/>
   <path class="UnoptimicedTransforms" transform="matrix(.65217 .18324 -.16866 .70852 79.085 16.796)" d="m96.768 117.37c-0.34632-0.3906 0.70466-1.8244 2.2593-3.9713h1e-6c0.69361-0.95221 1.7621-2.4028 3.167-3.6448 1.8636-1.6304 4.2358-3.1039 7.0666-4.1436 0.68905-0.2642 1.4136-0.50728 2.1681-0.71466 2.4749-0.68029 4.9557-0.88845 7.3432-0.5044 2.7559 0.54668 4.7944 2.0379 6.1002 3.1052 1.0574 0.86323 2.1378 1.596 2.9151 2.2791 1.2371 1.0693 1.6053 1.8988 1.3787 2.1901-0.25915 0.33301-1.0659-0.0195-2.3979-0.42643-0.78915-0.25586-2.2458-0.74235-3.5711-1.4138-1.4731-0.70547-3.3944-1.7563-4.9552-1.7986-1.735-0.17128-3.5918 0.11089-5.6821 0.68478-0.63431 0.17415-1.2683 0.369-1.8883 0.56983-2.4271 0.82799-4.5053 1.8872-6.2674 3.0454-1.0686 0.67656-2.525 1.9768-3.4061 2.675-2.2872 1.8314-3.8836 2.4588-4.23 2.0682z" fill="#2b1f1a"/>
   <path d="m168.58 102.5c0.27833 7e-3 0.54709 0.0256 0.8039 0.0469 0.45533 0.0205 0.91011 0.0533 1.3651 0.0957 1.2497 0.1163 2.4754 0.30354 3.6471 0.50227 4.3044 0.7236 6.5385 0.71242 10.161 1.107 3.1184 0.30452 5.6031 1.1056 7.4019 2.7269 3.1559 2.9616 3.3711 5.6495 3.1754 5.7475-0.19583 0.0975-0.97114-2.5955-3.9275-4.8693-1.6277-1.3124-6.0134-1.4714-11.021-0.95671-2.3289 0.23692-5.3716 0.52928-8.4109 0.63578-1.388 0.0964-3.4786 0.58354-5.4361-0.33739-0.69752-0.34952-1.2871-0.99464-1.5402-1.8682-0.18531-0.98275 0.24979-1.8992 1.1107-2.356 0.91757-0.41355 1.8356-0.49537 2.6706-0.47435z" fill="#3d2d23" stop-color="#000000" style="paint-order:stroke markers fill"/>
   <path d="m188.16 118.32c-0.1957 1.2568-2.2268 5.6214-3.4458 6.4039-2.129 1.3667-4.9139 2.5331-8.5807 1.8539-5.7661-1.0681-10.005-4.7324-9.4673-8.1844 0.53749-3.452 5.6476-5.3845 11.414-4.3164 5.7661 1.0681 10.617 0.79097 10.08 4.243z" fill="#fff" stop-color="#000000" style="paint-order:stroke markers fill"/>
   <g transform="matrix(.77956 .034452 -.031586 .85028 78.034 16.843)" stroke-width="1.2273">
    <circle transform="rotate(5.4434)" cx="139.73" cy="102.03" r="6.3496" fill="#3a3c31" stop-color="#000000" style="paint-order:stroke markers fill"/>
    <circle transform="rotate(5.4434)" cx="139.73" cy="102.03" r="3.198" stop-color="#000000" style="paint-order:stroke markers fill"/>
    <path d="m126.62 113.51c-0.34635 0.0563-1.0409 0.16915-1.3885 0.7534-0.34766 0.58424-0.34666 1.6363-6e-3 2.0351 0.34029 0.39885 1.0177 0.14505 1.6257-0.23405 0.60805-0.37911 1.1451-0.88218 1.1535-1.3377 8e-3 -0.4555-0.5141-0.86378-0.77603-1.0684s-0.26196-0.20466-0.60831-0.14837z" fill="#dadaf3" stop-color="#000000" style="font-variation-settings:normal"/>
   </g>
   <path class="UnoptimicedTransforms" transform="matrix(-.69691 .10792 .098945 .76014 244.08 19.41)" d="m94.754 117.41c1.1013-1.6178 5.4328 0.74733 11.362 2.9126 1.8332 0.64137 3.9045 1.1358 5.8255 0.96691 0.0973-7e-3 0.19464-0.0139 0.2921-0.0216 2.2505-0.17755 4.2617-0.59769 6.0203-1.2613 1.5876-0.53018 3.0939-1.597 4.3003-2.5536 2.5534-2.0585 4.1671-3.76 5.2588-3.1384 0.79445 0.45239 0.96021 2.9778-0.88222 6.5273-0.99841 1.9048-2.7134 4.0485-5.4459 5.6689-2.4966 1.4505-5.4679 2.3957-8.6854 2.6121-0.13924 9e-3 -0.27816 0.0173-0.41673 0.0238-3.684 0.14516-6.9466-0.92183-9.4242-2.4034-3.1535-1.9081-5.4585-4.1376-6.7545-5.7334-1.3488-1.6608-1.8899-2.9539-1.4501-3.6z" fill="#f6d3bd"/>
   <path class="UnoptimicedTransforms" transform="matrix(-.69783 .10057 .092209 .76115 245.74 20.464)" d="m95.28 116.31c-0.36166-0.61518 1.5669-2.4361 4.7157-4.9865h1e-6c1.9781-1.6067 5.06-3.9874 8.676-5.5995 1.1468-0.51153 2.3787-0.9534 3.68-1.288 2.166-0.55693 4.3268-0.76595 6.4103-0.63322 2.7846 0.12876 5.3098 1.1382 7.1504 2.7814 1.612 1.5818 2.3122 3.402 2.6824 4.4766 0.66813 1.9264 1.1443 3.1245 0.69879 3.4475-0.39925 0.28946-1.5394-0.35437-3.0055-2.1037-0.74403-0.84804-1.8234-2.31-2.7867-2.819-1.2036-0.80066-2.8456-1.0968-4.9086-1.1446-1.5981-2e-3 -3.2706 0.23399-5.0244 0.69241-1.0515 0.27486-2.0794 0.61611-3.0629 0.9922-2.7277 1.0428-6.5334 3.2149-8.5652 4.2247-3.7363 1.8728-6.2986 2.575-6.6602 1.9598z" fill="#2b1f1a"/>
   <path class="UnoptimicedTransforms" transform="matrix(.65991 0 0 .65991 57.965 54.311)" d="m175.76 153.88c0.0765-0.0482 0.47902 0.42104 1.0838 1.2375 0.56455 0.76213 1.4571 2.043 1.9285 3.4715 0.13802 0.41833 0.23679 0.83474 0.29503 1.2513 0.14397 1.3184-0.5068 2.3946-0.9585 2.9879-0.48233 0.63356-0.85319 0.92346-0.9132 0.87405-0.06-0.0494 0.19555-0.44187 0.56372-1.1035 0.34347-0.61728 0.87302-1.639 0.67606-2.6664-0.0574-0.37672-0.15007-0.75443-0.27779-1.1403-0.41848-1.2644-1.2612-2.6343-1.7076-3.4179-0.50019-0.87802-0.76659-1.4461-0.69007-1.4943z" fill="#2b1f1a"/>
   <path d="m165.91 165.97-5.8145 2.1521c-3.7889 1.4024-7.8628 0.4629-8.9042 0.0893-0.77783-0.279-2.8222-0.75887-3.3593-1.359-0.52771-0.58974-1.2048-0.62851-1.7424-1.2662-0.51193-0.60712-5.3238-6.2565-4.8804-6.7151 0.65474-0.0196 6.2634-1.3249 7.0638-1.4468 1.3756-0.20956 2.8146-0.26795 3.5344-3.4e-4 0.81435 0.30281 1.9952 0.73548 3.1976 0.67701 1.5905-0.0773 3.2744-0.70802 4.7452-0.62357 2.9375 0.16868 3.0774-0.15364 5.4494 0.79292 1.2661 0.50525 7.1286 1.1649 7.113 1.1823-0.88609 0.99626-0.26447 0.90723-0.89267 1.5043-1.4773 1.4042-3.9239 3.6778-5.5099 5.013z" fill="#c27c76" stop-color="#000000" style="paint-order:stroke markers fill"/>
   <g fill="#2b1f1a">
    <path class="UnoptimicedTransforms" transform="matrix(-.52057 -.37927 .42625 -.54872 166.46 262.27)" d="m90.666 123.47c-0.17041 5e-3 -0.66264-2.039-0.13347-5.5488 0.34386-2.2533 1.0728-4.7227 2.3454-7.6776 1.0937-2.5614 2.6367-5.5898 5.0337-8.0712 1.2924-1.3188 2.7821-2.3943 4.3955-3.3892 0.98171-0.60544 1.9906-1.1697 2.9428-1.7042 2.9905-1.7077 6.0068-2.8002 9.1018-2.6827 4.4114 0.21726 8.7332 1.6708 11.031 2.4762 2.5923 0.90879 4.0508 1.5096 4.008 1.6532-0.0428 0.14365-1.5965-0.19025-4.2457-0.86808-2.28-0.58338-6.7544-1.8228-10.839-1.8904-2.728-0.07661-5.4233 1.0023-8.3021 2.636-0.94523 0.54576-1.9472 1.1122-2.8907 1.6906-1.5596 0.95623-2.9549 1.9421-4.1262 3.1337-2.2224 2.2258-3.7559 5.0982-4.9157 7.5521-1.3432 2.8655-2.1517 5.1513-2.6437 7.3108-0.75266 3.2642-0.59111 5.3748-0.76152 5.3794z"/>
    <path class="UnoptimicedTransforms" transform="matrix(.52057 .37927 -.42625 .54872 145.62 66.38)" d="m81.809 111.5c-0.04889-0.10318 1.608-0.86463 3.598-3.0587 1.1221-1.2396 4.1506-5.1511 6.6986-7.0427 1.8263-1.3248 4.2419-1.6852 6.079-2.9089 0.75511-0.4933 1.459-1.0805 2.1702-1.7227 1.5688-1.4165 2.8818-2.8022 4.6397-3.8922 2.8872-1.7661 7.7073-3.2022 9.7203-4.0066 4.2776-1.7067 6.583-3.6688 6.6693-3.5507 0.0863 0.11815-2.0258 2.2836-6.3799 4.2338-2.6789 1.1991-6.2314 2.0935-9.4893 4.1594-1.6183 1.0119-2.8619 2.3595-4.4788 3.8126-0.73242 0.65825-1.4804 1.2756-2.2994 1.8111-2.1323 1.3705-4.4955 1.6701-6.0844 2.8189-3.0434 2.1467-5.0173 4.9497-6.806 6.7096-2.1814 2.1521-3.9885 2.7402-4.0373 2.637z"/>
    <path class="UnoptimicedTransforms" transform="matrix(.58273 -.37927 -.33632 -.54872 129.75 257.1)" d="m90.514 114.31c-0.07874-0.0296 0.19637-1.6106 1.8239-3.5785 1.1885-1.4332 3.002-3.0269 4.8383-4.9918 1.0824-1.1629 2.3703-2.99 3.9794-4.0812 0.15427-0.10241 0.31143-0.19936 0.47126-0.29163 1.7049-0.98421 3.548-1.3943 5.0576-2.0976v-1e-6c6.1006-2.8454 10.198-5.6001 10.276-5.4702 0.0782 0.12999-3.8523 3.0888-9.9962 6.0598-1.5821 0.76528-3.4196 1.1851-4.9942 2.1008-0.14761 0.0858-0.29162 0.17577-0.43183 0.27056-1.4592 0.96358-2.7452 2.7621-3.8965 3.9517-1.9081 1.9787-3.7413 3.492-4.9705 4.8396-1.6448 1.796-2.0788 3.318-2.1575 3.2884z"/>
   </g>
  </g>
  <path d="m155.15 57.332c1.5069 0.23341 3.0428 0.69169 5.3053 1.3144 1.6821 0.46298 3.7896 1.0183 6.3643 1.4651 2.2946 0.39818 4.9464 0.72748 7.7882 1.4893 2.655 0.71169 5.5487 1.814 8.7753 3.7877 3.1666 1.9369 6.6054 4.6819 9.3978 8.2004 1.3688 1.7246 2.5452 3.5889 3.4611 5.5828 0.91366 1.9892 1.5599 4.0889 1.8959 6.308 0.34262 2.2621 0.43101 4.8586 0.33596 7.8097-0.0962 2.9883-0.37125 6.1316-0.68591 9.4785-0.31227 3.3214-0.67051 6.9058-0.85314 10.353-0.18723 3.5337-0.21404 7.278 0.25082 10.919 0.49185 3.8522 1.4603 7.2702 2.6459 10.324 1.2237 3.1518 2.681 5.9151 4.0121 8.2373 1.426 2.4878 2.7506 4.5715 3.8118 6.3556 1.1792 1.9824 1.9619 3.4475 2.5351 4.7934 1.3507 3.1711 1.9057 6.0887 2.1954 8.3363 0.0218 0.16892 0.0421 0.33439 0.0613 0.49624 0.2162 1.8289 1.0322 4.3417 1.2725 7.4839 0.19882 2.6016-0.22569 5.8612-1.629 9.6249-1.2852 3.4469-3.1832 6.7392-5.2649 9.4667-2.2007 2.8833-4.561 4.9789-7.1326 6.6223-3.28 2.096-6.7151 3.3132-8.8086 3.5864 2.2068-0.28796 5.4757 0.21116 9.8349 0.33183 3.2427 0.0898 7.2418-0.10341 11.847-1.6068 4.335-1.4153 8.9965-3.8904 13.246-7.3373 4.5797-3.7145 8.5031-8.4143 11.05-13.857 3.1832-6.8011 3.7147-13.344 3.2138-17.581-0.0446-0.37776-0.0956-0.76128-0.15327-1.1503-0.76778-5.1809-2.7352-11.353-6.6084-17.454-1.5904-2.5048-3.3448-4.7129-5.0334-6.6987-1.4003-1.6468-3.0056-3.4132-4.406-5.06-1.2598-1.4776-2.381-2.8874-3.3229-4.3384-0.89029-1.3715-1.6866-2.8795-2.2743-4.6485-0.59886-1.8027-1.0278-4.1844-1.3386-7.195-0.30522-2.9566-0.46156-6.1013-0.66228-9.6788-0.19079-3.4006-0.4191-7.1172-0.88233-10.756-0.45926-3.6072-1.1735-7.3535-2.4153-10.911-1.2473-3.5738-2.967-6.7301-4.9654-9.4827-1.9955-2.7486-4.2628-5.0869-6.6145-7.051-4.7397-3.9585-9.9282-6.4904-14.359-7.8822-4.6566-1.4627-8.6214-1.7147-11.868-1.5456-3.3393 0.17396-6.3367 0.84141-8.3604 1.2216-2.459 0.46202-4.4916 0.70418-6.2352 0.80948-2.1938 0.13249-4.0368 0.05252-5.4273-0.16286z" fill="#573d2c" stroke="#31241c" stroke-width="1px"/>
  <g stroke="#31241c">
   <g stroke-width="1px">
    <path d="m224.13 181.96c1.0356-1.6232 2.3089-3.0018 4.1499-5.2596 1.2982-1.5921 2.8511-3.6108 4.1708-6.1253 1.1941-2.2753 2.2551-5.0559 2.8409-8.5219 0.55339-3.2742 0.66733-7.0708 0.13075-11.499-0.52416-4.3251-1.6352-9.1094-3.1534-14.099-1.5424-5.0693-3.4985-10.328-5.6644-15.486-4.8602-11.575-10.652-22.387-15.519-30.153-3.6761-5.8664-6.9389-10.219-9.4973-13.066-2.121-2.36-5.1512-4.9719-8.6558-7.4143-5.7239-3.989-11.775-6.9044-17.234-8.7239-4.9656-1.6548-8.9215-2.3598-12.214-2.771-4.2159-0.52649-7.0654-0.61792-8.338-1.5099 1.3119 0.91947 2.3989 3.5499 4.008 7.3396 1.2569 2.9603 2.7986 6.5034 5.2803 10.865 2.468 4.3371 6.1312 10.132 9.1523 14.557 2.0048 2.9367 4.0244 5.7088 5.7635 7.6438 2.1633 2.4071 5.3709 5.5541 9.4886 9.956 5.631 6.0198 12.574 14.07 19.611 23.512 3.0609 4.1076 5.9581 8.2418 8.5205 12.201 2.5308 3.9103 4.6325 7.4918 6.2357 10.622 1.6113 3.1465 2.7066 5.8568 3.412 8.2677 0.75156 2.5686 1.0777 4.8571 1.0904 7.0136 0.0143 2.4269-0.37296 4.635-0.93703 6.5936-0.7145 2.481-1.7408 4.6469-2.6406 6.0575z" fill="#573d2c"/>
    <path class="UnoptimicedTransforms" d="m159.16 64.671c-0.81012 0.45992 2.8656 11.696 14.319 25.94 6.572 8.1402 15.883 16.483 24.339 26.422 1.1744 1.3784 2.3467 2.7822 3.5152 4.2118 4.4803 5.4816 8.5294 10.884 12.202 16.18 5.1599 7.4796 8.9429 13.419 11.582 19.987 2.0904 5.2633 2.6672 9.735 2.0815 13.603-0.92433 6.7388-3.5574 10.668-3.0632 10.945 0.49418 0.27707 3.953-2.6821 6.066-10.31 1.155-4.3764 1.0433-9.7706-0.9849-15.74-2.4027-7.1786-6.1933-13.849-11.245-21.482-3.6306-5.5124-7.7225-11.112-12.308-16.723-1.1968-1.4642-2.4019-2.8981-3.613-4.3017-8.9441-10.353-18.376-18.271-25.126-25.735-11.6-12.76-16.955-23.458-17.765-22.998z" fill="#694936" stop-color="#000000" style="font-variation-settings:normal"/>
   </g>
   <g>
    <path d="m107.79 181.77c-1.9932-1.2693-4.8501-3.4197-7.0128-6.0726-0.89955-1.1034-1.7084-2.3242-2.3392-3.6804-0.58049-1.2478-1.005-2.5995-1.2304-4.0894-0.20277-1.3814-0.2427-2.9807-0.13234-4.7684 0.10583-1.7144 0.34783-3.5682 0.69837-5.5076 0.68039-3.7642 1.728-7.6321 2.8299-11.125 1.0867-3.448 2.1691-6.6392 3.6651-10.317 1.486-3.6529 3.3671-7.7443 5.8978-12.598 2.7208-5.2291 5.7289-10.28 9.0662-14.949 3.7166-5.1994 7.5022-9.4499 11.312-12.882 4.568-4.0949 9.7999-7.5987 13.822-10.207 1.0747-0.69688 2.0796-1.3403 3.0015-1.9351 2.3763-1.5333 5.9225-5.4954 8.6599-9.2357 2.7913-3.8003 4.6284-7.2337 6.3801-10.287 2.1168-3.6892 3.9865-6.4522 5.4176-6.8156-1.403 0.35625-4.2186-1.331-8.7878-2.6583-3.7844-1.0994-8.3652-1.7477-13.859-1.2952-5.597 0.46814-11.399 2.1628-14.62 4.2412-1.1586 0.74761-2.4134 1.6026-3.7395 2.5627-4.7848 3.4644-11.507 9.038-17.343 16.193-4.7864 5.8811-8.8539 12.601-12.209 19.892-3.0089 6.5389-5.3373 13.306-7.0549 19.885-1.6502 6.3044-2.4569 11.71-2.7449 16.559-0.28299 4.7643-0.05434 8.7888 0.24712 12.441 0.31609 3.8393 0.55923 8.12 1.2089 12.489 0.3309 2.2252 0.75677 4.384 1.3265 6.3983 0.5939 2.0997 1.3379 4.0194 2.2754 5.676 0.98006 1.722 2.1142 3.1087 3.2736 4.2525 1.2496 1.2329 2.5721 2.2253 3.8187 3.0518 3.1407 2.0822 6.0488 3.4283 8.1723 4.7805z" fill="#573d2c" stop-color="#000000" stroke-width="1px" style="font-variation-settings:normal"/>
    <path class="UnoptimicedTransforms" d="m164.11 56.206c0.20171-0.23993 1.375-0.49214 2.8822 0.87305 0.71293 0.71546 1.3828 1.8942 1.4092 3.4273 0.0103 1.6092-0.40256 3.1845-1.0347 4.6487-0.53446 1.3581-1.2552 2.8079-2.2036 4.2884-2.2077 3.4313-4.8754 6.3014-8.2575 9.7312-4.5834 4.686-10.291 10.014-16.923 15.239-6.1922 4.9096-14.148 10.454-19.581 16.281-0.97376 1.0367-1.9298 2.1048-2.8618 3.2031-5.6653 6.676-9.8169 13.718-12.273 20.885-3.0454 8.6291-3.4811 17.878-3.3184 25.177 0.25941 6.0335 0.57456 9.5717 2.0143 13.084 1.8567 4.9694 4.5338 7.9784 3.8274 8.7244s-4.3464-0.21065-8.7181-5.8541c-2.8258-3.8138-4.6425-8.779-5.6233-15.095-1.3824-7.9487-1.8712-18.405 1.2197-29.359 2.569-8.8614 7.2518-17.48 13.863-25.229 1.0877-1.2749 2.2073-2.5022 3.3522-3.6812 6.9404-7.1098 15.32-12.527 21.663-16.861 6.5157-4.4764 12.615-9.1311 17.603-12.977 4.0003-3.1287 6.3504-4.7757 8.908-7.3127 0.99361-0.97078 1.8416-1.9351 2.5718-2.8636 0.8684-1.2365 1.387-1.7176 1.687-2.4839 0.24874-0.42091 0.33085-0.92752 0.2767-1.3441-0.15101-1.1313-0.80521-2.1191-0.48334-2.5019z" fill="#694936"/>
   </g>
  </g>
  <path d="m151.12 7.043a131.23 131.23 0 0 0-70.328 22.838 131.23 131.23 0 0 0-34.289 182.39 131.23 131.23 0 0 0 182.39 34.289 131.23 131.23 0 0 0 34.287-182.39 131.23 131.23 0 0 0-112.06-57.125zm0.26758 9.3809a121.85 121.85 0 0 1 104.05 53.041 121.85 121.85 0 0 1-31.838 169.35 121.85 121.85 0 0 1-169.35-31.836 121.85 121.85 0 0 1 31.836-169.35 121.85 121.85 0 0 1 65.301-21.203z" fill="#232333" stop-color="#000000" style="font-variation-settings:'wght' 200;paint-order:stroke markers fill"/>
 </g>
</svg>
