<svg xlink="http://www.w3.org/1999/xlink" viewBox="0 0 5000 5000" xmlns="http://www.w3.org/2000/svg" style="transform: scale(1);"><defs><filter id="goo"><feGaussianBlur in="SourceGraphic" stdDeviation="0" result="blur"></feGaussianBlur><feColorMatrix in="blur" type="matrix" values="1 0 0 0 0 0 1 0 0 0 0 0 1 0 0 0 0 0 19 -9" result="good"></feColorMatrix><feComposite in="SourceGraphic" in2="goo" operator="atop"></feComposite></filter><path d="M284,261L221,271C231,254 231,245 222,227C245,210 274,217 285,241C269,249 268,252 284,261z" id="P0"></path><path d="M257,240L262,252L256,260L240,243L257,240z" id="P1"></path><path d="M214,236Q243,192 280,225L282,273C266,290 242,292 225,280Q193,261 214,236z" id="P2"></path><path d="M247,267L236,260L262,238L267,248L247,267z" id="P3"></path><path d="M241,231C260,228 273,244 266,263Q270,274 261,268C250,273 238,269 230,258C227,247 232,237 241,231z" id="P4"></path><path d="M235,236L269,243L270,249L253,270L235,236z" id="P5"></path><path d="M245,276C238,259 236,248 233,230Q245,211 263,227L276,255L245,276z" id="P6"></path><path d="M248,267L233,249L247,233L267,248L248,267z" id="P7"></path><path d="M285,259C265,262 258,267 252,286L239,216Q237,198 248,214Q292,216 285,259z" id="P8"></path><path d="M246,266L235,242L262,238L252,267L246,266z" id="P9"></path></defs><rect id="RECT" width="5000" height="5000" fill="#1D1321"></rect><g id="group" fill="#DDCD94" filter=""><use x="0" y="-36" href="#P6"></use><use x="-137" y="385" href="#P4"></use><use x="-124" y="775" href="#P6"></use><use x="69" y="1199" href="#P7"></use><use x="-180" y="1365" href="#P3"></use><use x="-59" y="1681" href="#P0"></use><use x="18" y="2024" href="#P1"></use><use x="-102" y="2305" href="#P4"></use><use x="-92" y="2475" href="#P3"></use><use x="7" y="2761" href="#P3"></use><use x="-57" y="2855" href="#P8"></use><use x="-107" y="3274" href="#P3"></use><use x="-51" y="3494" href="#P0"></use><use x="-78" y="3775" href="#P2"></use><use x="6" y="4047" href="#P2"></use><use x="-57" y="4486" href="#P3"></use><use x="-73" y="4928" href="#P7"></use><use x="192" y="49" href="#P5"></use><use x="511" y="353" href="#P6"></use><use x="145" y="991" href="#P1"></use><use x="273" y="841" href="#P3"></use><use x="275" y="1455" href="#P2"></use><use x="247" y="1669" href="#P2"></use><use x="75" y="2053" href="#P9"></use><use x="173" y="2341" href="#P1"></use><use x="242" y="2558" href="#P5"></use><use x="190" y="2651" href="#P0"></use><use x="143" y="3057" href="#P5"></use><use x="152" y="3182" href="#P1"></use><use x="84" y="3496" href="#P1"></use><use x="493" y="4269" href="#P9"></use><use x="299" y="4388" href="#P1"></use><use x="230" y="4785" href="#P6"></use><use x="336" y="5104" href="#P8"></use><use x="870" y="68" href="#P6"></use><use x="852" y="367" href="#P1"></use><use x="893" y="613" href="#P0"></use><use x="673" y="889" href="#P1"></use><use x="834" y="1171" href="#P8"></use><use x="387" y="1833" href="#P8"></use><use x="454" y="1938" href="#P1"></use><use x="386" y="2234" href="#P0"></use><use x="546" y="2520" href="#P4"></use><use x="571" y="2879" href="#P6"></use><use x="454" y="3028" href="#P8"></use><use x="717" y="3533" href="#P2"></use><use x="609" y="3744" href="#P8"></use><use x="654" y="4174" href="#P0"></use><use x="591" y="4584" href="#P4"></use><use x="789" y="4812" href="#P1"></use><use x="591" y="5093" href="#P0"></use><use x="1167" y="49" href="#P9"></use><use x="976" y="345" href="#P7"></use><use x="1199" y="398" href="#P3"></use><use x="1252" y="797" href="#P0"></use><use x="999" y="1161" href="#P4"></use><use x="1025" y="1588" href="#P4"></use><use x="1099" y="1724" href="#P6"></use><use x="736" y="2268" href="#P2"></use><use x="771" y="2508" href="#P0"></use><use x="630" y="2843" href="#P0"></use><use x="886" y="3316" href="#P7"></use><use x="1020" y="3581" href="#P1"></use><use x="1125" y="4020" href="#P5"></use><use x="1167" y="4142" href="#P2"></use><use x="978" y="4660" href="#P2"></use><use x="1271" y="4974" href="#P7"></use><use x="1081" y="5040" href="#P3"></use><use x="1496" y="-139" href="#P6"></use><use x="1383" y="235" href="#P8"></use><use x="1416" y="427" href="#P3"></use><use x="1551" y="779" href="#P2"></use><use x="1541" y="1218" href="#P9"></use><use x="1526" y="1508" href="#P8"></use><use x="1245" y="2030" href="#P6"></use><use x="867" y="2358" href="#P9"></use><use x="1028" y="2607" href="#P4"></use><use x="1047" y="2816" href="#P5"></use><use x="1408" y="3224" href="#P2"></use><use x="1264" y="3520" href="#P9"></use><use x="1488" y="3803" href="#P5"></use><use x="1283" y="4150" href="#P1"></use><use x="1353" y="4636" href="#P8"></use><use x="1362" y="4875" href="#P0"></use><use x="1556" y="5095" href="#P3"></use><use x="1819" y="28" href="#P3"></use><use x="1933" y="92" href="#P6"></use><use x="1817" y="536" href="#P1"></use><use x="1656" y="875" href="#P4"></use><use x="1823" y="1097" href="#P4"></use><use x="1637" y="1522" href="#P3"></use><use x="1835" y="1931" href="#P8"></use><use x="1309" y="2350" href="#P0"></use><use x="1312" y="2455" href="#P9"></use><use x="1522" y="3026" href="#P2"></use><use x="1588" y="3265" href="#P5"></use><use x="1853" y="3777" href="#P6"></use><use x="1721" y="4124" href="#P7"></use><use x="1953" y="4404" href="#P3"></use><use x="1685" y="4707" href="#P8"></use><use x="1791" y="4855" href="#P9"></use><use x="1952" y="5022" href="#P8"></use><use x="1992" y="-108" href="#P3"></use><use x="2036" y="163" href="#P4"></use><use x="2168" y="474" href="#P3"></use><use x="2053" y="700" href="#P1"></use><use x="2124" y="985" href="#P5"></use><use x="1931" y="1349" href="#P8"></use><use x="2062" y="1741" href="#P0"></use><use x="1942" y="2314" href="#P5"></use><use x="1692" y="2410" href="#P6"></use><use x="1868" y="2757" href="#P0"></use><use x="2116" y="3241" href="#P2"></use><use x="2189" y="3840" href="#P4"></use><use x="2192" y="4170" href="#P6"></use><use x="2222" y="4452" href="#P8"></use><use x="2179" y="4699" href="#P8"></use><use x="2134" y="4837" href="#P0"></use><use x="2095" y="5041" href="#P2"></use><use x="2324" y="-131" href="#P9"></use><use x="2380" y="129" href="#P5"></use><use x="2433" y="479" href="#P5"></use><use x="2497" y="817" href="#P7"></use><use x="2401" y="895" href="#P3"></use><use x="2428" y="1485" href="#P9"></use><use x="2452" y="1816" href="#P5"></use><use x="2265" y="2325" href="#P8"></use><use x="2096" y="2605" href="#P6"></use><use x="2378" y="2836" href="#P7"></use><use x="2210" y="3446" href="#P6"></use><use x="2379" y="3570" href="#P7"></use><use x="2375" y="3987" href="#P0"></use><use x="2482" y="4301" href="#P3"></use><use x="2362" y="4554" href="#P9"></use><use x="2489" y="4839" href="#P3"></use><use x="2484" y="5139" href="#P4"></use><use x="2516" y="-65" href="#P2"></use><use x="2697" y="69" href="#P5"></use><use x="2734" y="524" href="#P4"></use><use x="2749" y="673" href="#P6"></use><use x="2573" y="1089" href="#P9"></use><use x="2781" y="1339" href="#P2"></use><use x="2595" y="1785" href="#P6"></use><use x="2502" y="2069" href="#P0"></use><use x="2431" y="2434" href="#P7"></use><use x="2633" y="3130" href="#P3"></use><use x="2695" y="3336" href="#P2"></use><use x="2761" y="3595" href="#P9"></use><use x="2651" y="4139" href="#P5"></use><use x="2623" y="4236" href="#P1"></use><use x="2668" y="4707" href="#P4"></use><use x="2576" y="4929" href="#P6"></use><use x="2720" y="5026" href="#P1"></use><use x="2958" y="-89" href="#P7"></use><use x="2977" y="210" href="#P4"></use><use x="2772" y="532" href="#P5"></use><use x="3003" y="751" href="#P2"></use><use x="2860" y="1077" href="#P4"></use><use x="3027" y="1273" href="#P6"></use><use x="2880" y="1926" href="#P9"></use><use x="3014" y="2014" href="#P4"></use><use x="3165" y="2602" href="#P5"></use><use x="2874" y="2917" href="#P7"></use><use x="2901" y="3367" href="#P5"></use><use x="3003" y="3563" href="#P2"></use><use x="3023" y="3948" href="#P0"></use><use x="2952" y="4311" href="#P4"></use><use x="3018" y="4652" href="#P5"></use><use x="2816" y="4971" href="#P7"></use><use x="2984" y="5031" href="#P9"></use><use x="3245" y="-64" href="#P6"></use><use x="3204" y="162" href="#P1"></use><use x="3186" y="553" href="#P0"></use><use x="3228" y="672" href="#P1"></use><use x="3095" y="1046" href="#P8"></use><use x="3264" y="1445" href="#P0"></use><use x="3319" y="1849" href="#P9"></use><use x="3429" y="2195" href="#P4"></use><use x="3817" y="2536" href="#P0"></use><use x="3445" y="3070" href="#P9"></use><use x="3258" y="3233" href="#P8"></use><use x="3405" y="3733" href="#P1"></use><use x="3394" y="3827" href="#P4"></use><use x="3266" y="4180" href="#P7"></use><use x="3133" y="4601" href="#P6"></use><use x="3185" y="4822" href="#P7"></use><use x="3285" y="5126" href="#P3"></use><use x="3590" y="-53" href="#P2"></use><use x="3318" y="79" href="#P1"></use><use x="3411" y="375" href="#P1"></use><use x="3444" y="623" href="#P1"></use><use x="3461" y="1060" href="#P1"></use><use x="3726" y="1289" href="#P9"></use><use x="3770" y="1951" href="#P7"></use><use x="3937" y="2285" href="#P6"></use><use x="3945" y="2603" href="#P2"></use><use x="3997" y="2698" href="#P0"></use><use x="3616" y="3310" href="#P8"></use><use x="3769" y="3567" href="#P9"></use><use x="3542" y="3839" href="#P0"></use><use x="3601" y="4196" href="#P5"></use><use x="3535" y="4701" href="#P9"></use><use x="3645" y="4748" href="#P1"></use><use x="3542" y="5208" href="#P9"></use><use x="3781" y="-77" href="#P5"></use><use x="3833" y="181" href="#P4"></use><use x="3748" y="498" href="#P6"></use><use x="4013" y="881" href="#P6"></use><use x="4144" y="1190" href="#P7"></use><use x="3958" y="1613" href="#P8"></use><use x="4348" y="1994" href="#P9"></use><use x="4245" y="2346" href="#P6"></use><use x="4366" y="2459" href="#P9"></use><use x="4255" y="2697" href="#P3"></use><use x="3894" y="3262" href="#P5"></use><use x="3994" y="3374" href="#P2"></use><use x="3782" y="3854" href="#P8"></use><use x="3738" y="4119" href="#P1"></use><use x="3746" y="4459" href="#P9"></use><use x="3890" y="4702" href="#P2"></use><use x="3769" y="5101" href="#P2"></use><use x="4093" y="26" href="#P6"></use><use x="4415" y="158" href="#P4"></use><use x="4480" y="433" href="#P9"></use><use x="4099" y="717" href="#P5"></use><use x="4583" y="1638" href="#P1"></use><use x="4635" y="1890" href="#P5"></use><use x="4559" y="2099" href="#P4"></use><use x="4452" y="2193" href="#P6"></use><use x="4529" y="2562" href="#P3"></use><use x="4486" y="2827" href="#P0"></use><use x="4503" y="3052" href="#P6"></use><use x="4314" y="3594" href="#P0"></use><use x="4416" y="3983" href="#P8"></use><use x="4266" y="4257" href="#P9"></use><use x="4161" y="4587" href="#P7"></use><use x="4363" y="4942" href="#P4"></use><use x="4388" y="5140" href="#P4"></use><use x="4671" y="-138" href="#P5"></use><use x="4790" y="224" href="#P4"></use><use x="4542" y="415" href="#P2"></use><use x="4615" y="717" href="#P9"></use><use x="4713" y="1628" href="#P9"></use><use x="4851" y="1793" href="#P7"></use><use x="4878" y="2033" href="#P2"></use><use x="4842" y="2395" href="#P2"></use><use x="4795" y="2485" href="#P3"></use><use x="4803" y="2847" href="#P2"></use><use x="4867" y="3026" href="#P7"></use><use x="4720" y="3178" href="#P0"></use><use x="4724" y="3518" href="#P4"></use><use x="4785" y="3763" href="#P5"></use><use x="4770" y="4340" href="#P0"></use><use x="4620" y="4899" href="#P2"></use><use x="4482" y="5071" href="#P4"></use><use x="5062" y="-37" href="#P0"></use><use x="5008" y="599" href="#P1"></use><use x="5003" y="980" href="#P2"></use><use x="5129" y="1067" href="#P5"></use><use x="4977" y="1476" href="#P0"></use><use x="5132" y="1833" href="#P4"></use><use x="5041" y="2118" href="#P3"></use><use x="5083" y="2371" href="#P4"></use><use x="5051" y="2599" href="#P9"></use><use x="5148" y="2817" href="#P2"></use><use x="4995" y="3025" href="#P4"></use><use x="4939" y="3163" href="#P9"></use><use x="5040" y="3432" href="#P2"></use><use x="5074" y="3700" href="#P3"></use><use x="5041" y="4143" href="#P9"></use><use x="5011" y="4672" href="#P9"></use><use x="5118" y="5061" href="#P3"></use></g></svg>